<svg width="78" height="32" viewBox="0 0 78 32" fill="none" xmlns="http://www.w3.org/2000/svg">
<path d="M26.8025 8.1832C26.3871 6.05641 25.3127 4.12037 23.7365 2.65814C22.1602 1.19591 20.1648 0.284195 18.0419 0.0562922C15.9189 -0.17161 13.7799 0.296255 11.9375 1.39148C10.0951 2.48671 8.64604 4.15185 7.80208 6.14344C6.85564 6.0327 5.8969 6.11933 4.98457 6.39802C4.07223 6.67671 3.2255 7.1416 2.49621 7.76423C1.76692 8.38686 1.17043 9.15412 0.743239 10.019C0.316054 10.884 0.067169 11.8283 0.0118237 12.7943C-0.0435216 13.7604 0.095837 14.7277 0.421367 15.6371C0.746897 16.5465 1.25175 17.3789 1.90501 18.0832C2.55828 18.7875 3.3462 19.349 4.22055 19.7333C5.09491 20.1176 6.03728 20.3166 6.98998 20.3181H25.9924C27.5148 20.3199 28.9809 19.7339 30.0939 18.6787C31.2068 17.6236 31.8833 16.1783 31.9862 14.6356C32.0892 13.0928 31.611 11.568 30.6485 10.3699C29.686 9.17187 28.3112 8.39018 26.8025 8.1832ZM16.9912 2.03346C18.9594 2.03304 20.8587 2.76945 22.3259 4.10189C23.7931 5.43432 24.7253 7.26928 24.9442 9.2559C24.9714 9.50551 25.0887 9.73603 25.2734 9.90299C25.4581 10.0699 25.6971 10.1615 25.9444 10.16H25.9924C27.0534 10.1602 28.0708 10.5886 28.8209 11.3508C29.5709 12.113 29.9921 13.1466 29.9919 14.2243C29.9916 15.3019 29.5699 16.3353 28.8195 17.0971C28.069 17.8589 27.0514 18.2868 25.9904 18.2865H6.98998C6.28204 18.2861 5.58224 18.1331 4.93688 17.8375C4.29152 17.542 3.7153 17.1106 3.24634 16.5719C2.77739 16.0333 2.42638 15.3996 2.21655 14.7129C2.00671 14.0261 1.94283 13.302 2.02913 12.5883C2.11543 11.8746 2.34994 11.1877 2.71716 10.5729C3.08437 9.95814 3.57591 9.42959 4.15926 9.0222C4.74261 8.61481 5.40448 8.33786 6.10109 8.20969C6.79769 8.08152 7.51315 8.10504 8.20014 8.27869C8.44522 8.34078 8.70437 8.30637 8.92551 8.18238C9.14665 8.0584 9.31341 7.85401 9.39229 7.61028C9.92091 5.98736 10.9397 4.57496 12.3039 3.5738C13.6681 2.57264 15.3082 2.03366 16.9912 2.03346ZM5.23976 22.8577C5.37239 22.8577 5.49958 22.9112 5.59336 23.0064C5.68714 23.1017 5.73983 23.2309 5.73983 23.3656V24.5236L6.74195 23.9405C6.85682 23.8775 6.99142 23.8625 7.11698 23.899C7.24254 23.9354 7.3491 24.0202 7.41388 24.1354C7.47867 24.2505 7.49654 24.3868 7.46367 24.5152C7.43081 24.6435 7.34982 24.7537 7.23801 24.8223L6.24789 25.3972L7.23801 25.9722C7.34982 26.0407 7.43081 26.1509 7.46367 26.2792C7.49654 26.4076 7.47867 26.5439 7.41388 26.659C7.3491 26.7742 7.24254 26.859 7.11698 26.8954C6.99142 26.9319 6.85682 26.9169 6.74195 26.8539L5.73983 26.2728V27.4288C5.73983 27.5635 5.68714 27.6927 5.59336 27.788C5.49958 27.8832 5.37239 27.9367 5.23976 27.9367C5.10714 27.9367 4.97995 27.8832 4.88617 27.788C4.79239 27.6927 4.7397 27.5635 4.7397 27.4288V26.2708L3.73757 26.8539C3.6227 26.9169 3.4881 26.9319 3.36254 26.8954C3.23698 26.859 3.13042 26.7742 3.06564 26.659C3.00086 26.5439 2.98299 26.4076 3.01585 26.2792C3.04872 26.1509 3.1297 26.0407 3.24151 25.9722L4.23164 25.3972L3.24151 24.8223C3.1297 24.7537 3.04872 24.6435 3.01585 24.5152C2.98299 24.3868 3.00086 24.2505 3.06564 24.1354C3.13042 24.0202 3.23698 23.9354 3.36254 23.899C3.4881 23.8625 3.6227 23.8775 3.73757 23.9405L4.7397 24.5216V23.3656C4.7397 23.2309 4.79239 23.1017 4.88617 23.0064C4.97995 22.9112 5.10714 22.8577 5.23976 22.8577ZM10.7405 26.9209C10.8731 26.9209 11.0003 26.9744 11.0941 27.0697C11.1878 27.1649 11.2405 27.2941 11.2405 27.4288V28.5869L12.2426 28.0038C12.3575 27.9407 12.4921 27.9258 12.6177 27.9622C12.7432 27.9986 12.8498 28.0835 12.9146 28.1986C12.9794 28.3138 12.9972 28.4501 12.9644 28.5784C12.9315 28.7068 12.8505 28.817 12.7387 28.8855L11.7486 29.4605L12.7387 30.0354C12.8505 30.1039 12.9315 30.2141 12.9644 30.3425C12.9972 30.4708 12.9794 30.6072 12.9146 30.7223C12.8498 30.8375 12.7432 30.9223 12.6177 30.9587C12.4921 30.9951 12.3575 30.9802 12.2426 30.9171L11.2405 30.3361V31.4921C11.2405 31.6268 11.1878 31.756 11.0941 31.8512C11.0003 31.9465 10.8731 32 10.7405 32C10.6078 32 10.4806 31.9465 10.3869 31.8512C10.2931 31.756 10.2404 31.6268 10.2404 31.4921V30.3341L9.23827 30.9171C9.12339 30.9802 8.98879 30.9951 8.86323 30.9587C8.73767 30.9223 8.63112 30.8375 8.56633 30.7223C8.50155 30.6072 8.48368 30.4708 8.51654 30.3425C8.54941 30.2141 8.6304 30.1039 8.7422 30.0354L9.73233 29.4605L8.7422 28.8855C8.6304 28.817 8.54941 28.7068 8.51654 28.5784C8.48368 28.4501 8.50155 28.3138 8.56633 28.1986C8.63112 28.0835 8.73767 27.9986 8.86323 27.9622C8.98879 27.9258 9.12339 27.9407 9.23827 28.0038L10.2404 28.5848V27.4288C10.2404 27.2941 10.2931 27.1649 10.3869 27.0697C10.4806 26.9744 10.6078 26.9209 10.7405 26.9209ZM21.7418 26.9209C21.8745 26.9209 22.0017 26.9744 22.0954 27.0697C22.1892 27.1649 22.2419 27.2941 22.2419 27.4288V28.5869L23.244 28.0038C23.3589 27.9407 23.4935 27.9258 23.6191 27.9622C23.7446 27.9986 23.8512 28.0835 23.916 28.1986C23.9807 28.3138 23.9986 28.4501 23.9658 28.5784C23.9329 28.7068 23.8519 28.817 23.7401 28.8855L22.75 29.4605L23.7401 30.0354C23.8519 30.1039 23.9329 30.2141 23.9658 30.3425C23.9986 30.4708 23.9807 30.6072 23.916 30.7223C23.8512 30.8375 23.7446 30.9223 23.6191 30.9587C23.4935 30.9951 23.3589 30.9802 23.244 30.9171L22.2419 30.3361V31.4921C22.2419 31.6268 22.1892 31.756 22.0954 31.8512C22.0017 31.9465 21.8745 32 21.7418 32C21.6092 32 21.482 31.9465 21.3882 31.8512C21.2945 31.756 21.2418 31.6268 21.2418 31.4921V30.3341L20.2397 30.9171C20.1248 30.9802 19.9902 30.9951 19.8646 30.9587C19.7391 30.9223 19.6325 30.8375 19.5677 30.7223C19.5029 30.6072 19.4851 30.4708 19.5179 30.3425C19.5508 30.2141 19.6318 30.1039 19.7436 30.0354L20.7337 29.4605L19.7436 28.8855C19.6318 28.817 19.5508 28.7068 19.5179 28.5784C19.4851 28.4501 19.5029 28.3138 19.5677 28.1986C19.6325 28.0835 19.7391 27.9986 19.8646 27.9622C19.9902 27.9258 20.1248 27.9407 20.2397 28.0038L21.2418 28.5848V27.4288C21.2418 27.2941 21.2945 27.1649 21.3882 27.0697C21.482 26.9744 21.6092 26.9209 21.7418 26.9209ZM16.2411 22.8577C16.3738 22.8577 16.501 22.9112 16.5947 23.0064C16.6885 23.1017 16.7412 23.2309 16.7412 23.3656V24.5236L17.7433 23.9405C17.8582 23.8775 17.9928 23.8625 18.1184 23.899C18.2439 23.9354 18.3505 24.0202 18.4153 24.1354C18.4801 24.2505 18.4979 24.3868 18.4651 24.5152C18.4322 24.6435 18.3512 24.7537 18.2394 24.8223L17.2493 25.3972L18.2394 25.9722C18.3512 26.0407 18.4322 26.1509 18.4651 26.2792C18.4979 26.4076 18.4801 26.5439 18.4153 26.659C18.3505 26.7742 18.2439 26.859 18.1184 26.8954C17.9928 26.9319 17.8582 26.9169 17.7433 26.8539L16.7412 26.2728V27.4288C16.7412 27.5635 16.6885 27.6927 16.5947 27.788C16.501 27.8832 16.3738 27.9367 16.2411 27.9367C16.1085 27.9367 15.9813 27.8832 15.8875 27.788C15.7938 27.6927 15.7411 27.5635 15.7411 27.4288V26.2708L14.739 26.8539C14.6241 26.9169 14.4895 26.9319 14.3639 26.8954C14.2384 26.859 14.1318 26.7742 14.067 26.659C14.0022 26.5439 13.9844 26.4076 14.0172 26.2792C14.0501 26.1509 14.1311 26.0407 14.2429 25.9722L15.233 25.3972L14.2429 24.8223C14.1311 24.7537 14.0501 24.6435 14.0172 24.5152C13.9844 24.3868 14.0022 24.2505 14.067 24.1354C14.1318 24.0202 14.2384 23.9354 14.3639 23.899C14.4895 23.8625 14.6241 23.8775 14.739 23.9405L15.7411 24.5216V23.3656C15.7411 23.2309 15.7938 23.1017 15.8875 23.0064C15.9813 22.9112 16.1085 22.8577 16.2411 22.8577ZM27.2425 22.8577C27.3752 22.8577 27.5023 22.9112 27.5961 23.0064C27.6899 23.1017 27.7426 23.2309 27.7426 23.3656V24.5236L28.7447 23.9405C28.8596 23.8775 28.9942 23.8625 29.1198 23.899C29.2453 23.9354 29.3519 24.0202 29.4167 24.1354C29.4814 24.2505 29.4993 24.3868 29.4664 24.5152C29.4336 24.6435 29.3526 24.7537 29.2408 24.8223L28.2507 25.3972L29.2408 25.9722C29.3526 26.0407 29.4336 26.1509 29.4664 26.2792C29.4993 26.4076 29.4814 26.5439 29.4167 26.659C29.3519 26.7742 29.2453 26.859 29.1198 26.8954C28.9942 26.9319 28.8596 26.9169 28.7447 26.8539L27.7426 26.2728V27.4288C27.7426 27.5635 27.6899 27.6927 27.5961 27.788C27.5023 27.8832 27.3752 27.9367 27.2425 27.9367C27.1099 27.9367 26.9827 27.8832 26.8889 27.788C26.7952 27.6927 26.7425 27.5635 26.7425 27.4288V26.2708L25.7403 26.8539C25.6255 26.9169 25.4909 26.9319 25.3653 26.8954C25.2398 26.859 25.1332 26.7742 25.0684 26.659C25.0036 26.5439 24.9858 26.4076 25.0186 26.2792C25.0515 26.1509 25.1325 26.0407 25.2443 25.9722L26.2344 25.3972L25.2443 24.8223C25.1325 24.7537 25.0515 24.6435 25.0186 24.5152C24.9858 24.3868 25.0036 24.2505 25.0684 24.1354C25.1332 24.0202 25.2398 23.9354 25.3653 23.899C25.4909 23.8625 25.6255 23.8775 25.7403 23.9405L26.7425 24.5216V23.3656C26.7425 23.2309 26.7952 23.1017 26.8889 23.0064C26.9827 22.9112 27.1099 22.8577 27.2425 22.8577Z" fill="#006EB6"/>
<path d="M62 22C60.4087 22 58.8826 21.3679 57.7574 20.2426C56.6321 19.1174 56 17.5913 56 16C56 14.4087 56.6321 12.8826 57.7574 11.7574C58.8826 10.6321 60.4087 10 62 10C63.5913 10 65.1174 10.6321 66.2426 11.7574C67.3679 12.8826 68 14.4087 68 16C68 17.5913 67.3679 19.1174 66.2426 20.2426C65.1174 21.3679 63.5913 22 62 22ZM62 24C64.1217 24 66.1566 23.1571 67.6569 21.6569C69.1571 20.1566 70 18.1217 70 16C70 13.8783 69.1571 11.8434 67.6569 10.3431C66.1566 8.84285 64.1217 8 62 8C59.8783 8 57.8434 8.84285 56.3431 10.3431C54.8429 11.8434 54 13.8783 54 16C54 18.1217 54.8429 20.1566 56.3431 21.6569C57.8434 23.1571 59.8783 24 62 24ZM62 0C62.2652 0 62.5196 0.105357 62.7071 0.292893C62.8946 0.48043 63 0.734784 63 1V5C63 5.26522 62.8946 5.51957 62.7071 5.70711C62.5196 5.89464 62.2652 6 62 6C61.7348 6 61.4804 5.89464 61.2929 5.70711C61.1054 5.51957 61 5.26522 61 5V1C61 0.734784 61.1054 0.48043 61.2929 0.292893C61.4804 0.105357 61.7348 0 62 0ZM62 26C62.2652 26 62.5196 26.1054 62.7071 26.2929C62.8946 26.4804 63 26.7348 63 27V31C63 31.2652 62.8946 31.5196 62.7071 31.7071C62.5196 31.8946 62.2652 32 62 32C61.7348 32 61.4804 31.8946 61.2929 31.7071C61.1054 31.5196 61 31.2652 61 31V27C61 26.7348 61.1054 26.4804 61.2929 26.2929C61.4804 26.1054 61.7348 26 62 26ZM78 16C78 16.2652 77.8946 16.5196 77.7071 16.7071C77.5196 16.8946 77.2652 17 77 17H73C72.7348 17 72.4804 16.8946 72.2929 16.7071C72.1054 16.5196 72 16.2652 72 16C72 15.7348 72.1054 15.4804 72.2929 15.2929C72.4804 15.1054 72.7348 15 73 15H77C77.2652 15 77.5196 15.1054 77.7071 15.2929C77.8946 15.4804 78 15.7348 78 16ZM52 16C52 16.2652 51.8946 16.5196 51.7071 16.7071C51.5196 16.8946 51.2652 17 51 17H47C46.7348 17 46.4804 16.8946 46.2929 16.7071C46.1054 16.5196 46 16.2652 46 16C46 15.7348 46.1054 15.4804 46.2929 15.2929C46.4804 15.1054 46.7348 15 47 15H51C51.2652 15 51.5196 15.1054 51.7071 15.2929C51.8946 15.4804 52 15.7348 52 16ZM73.314 4.686C73.5015 4.87353 73.6068 5.12784 73.6068 5.393C73.6068 5.65816 73.5015 5.91247 73.314 6.1L70.486 8.93C70.393 9.02285 70.2827 9.09647 70.1612 9.14666C70.0398 9.19686 69.9097 9.22265 69.7783 9.22256C69.5129 9.22237 69.2585 9.11677 69.071 8.929C68.9782 8.83602 68.9045 8.72567 68.8543 8.60424C68.8041 8.48281 68.7784 8.35269 68.7784 8.22129C68.7786 7.95593 68.8842 7.70151 69.072 7.514L71.9 4.686C72.0875 4.49853 72.3418 4.39321 72.607 4.39321C72.8722 4.39321 73.1265 4.49853 73.314 4.686ZM54.928 23.072C55.1155 23.2595 55.2208 23.5138 55.2208 23.779C55.2208 24.0442 55.1155 24.2985 54.928 24.486L52.1 27.314C51.9114 27.4962 51.6588 27.597 51.3966 27.5947C51.1344 27.5924 50.8836 27.4872 50.6982 27.3018C50.5128 27.1164 50.4076 26.8656 50.4053 26.6034C50.403 26.3412 50.5038 26.0886 50.686 25.9L53.514 23.072C53.7015 22.8845 53.9558 22.7792 54.221 22.7792C54.4862 22.7792 54.7405 22.8845 54.928 23.072ZM73.314 27.314C73.1265 27.5015 72.8722 27.6068 72.607 27.6068C72.3418 27.6068 72.0875 27.5015 71.9 27.314L69.072 24.486C68.8898 24.2974 68.789 24.0448 68.7913 23.7826C68.7936 23.5204 68.8988 23.2696 69.0842 23.0842C69.2696 22.8988 69.5204 22.7936 69.7826 22.7913C70.0448 22.789 70.2974 22.8898 70.486 23.072L73.314 25.9C73.5015 26.0875 73.6068 26.3418 73.6068 26.607C73.6068 26.8722 73.5015 27.1265 73.314 27.314ZM54.928 8.93C54.7405 9.11747 54.4862 9.22279 54.221 9.22279C53.9558 9.22279 53.7015 9.11747 53.514 8.93L50.686 6.1C50.5905 6.00775 50.5143 5.89741 50.4619 5.7754C50.4095 5.6534 50.3819 5.52218 50.3807 5.3894C50.3796 5.25662 50.4049 5.12494 50.4552 5.00205C50.5055 4.87915 50.5797 4.7675 50.6736 4.6736C50.7675 4.57971 50.8791 4.50546 51.002 4.45518C51.1249 4.4049 51.2566 4.3796 51.3894 4.38075C51.5222 4.3819 51.6534 4.40949 51.7754 4.4619C51.8974 4.51431 52.0078 4.59049 52.1 4.686L54.928 7.514C55.0211 7.60689 55.095 7.71724 55.1454 7.83873C55.1958 7.96022 55.2218 8.09047 55.2218 8.222C55.2218 8.35353 55.1958 8.48378 55.1454 8.60527C55.095 8.72676 55.0211 8.83711 54.928 8.93Z" fill="#006EB6"/>
</svg>
