<svg width="42" height="28" viewBox="0 0 42 28" fill="none" xmlns="http://www.w3.org/2000/svg">
<path d="M0.0940755 0.820325C0.223552 0.502789 0.475921 0.248833 0.795694 0.114296C1.11547 -0.0202413 1.47646 -0.0243459 1.79931 0.102885L6.4087 1.91713C7.34675 2.28618 8.39316 2.28618 9.33121 1.91713L11.9914 0.869359C13.5551 0.254054 15.2994 0.254054 16.8631 0.869359L19.5259 1.91713C20.464 2.28618 21.5104 2.28618 22.4484 1.91713L25.1086 0.869359C26.6723 0.254054 28.4166 0.254054 29.9803 0.869359L32.6431 1.91713C33.5812 2.28618 34.6276 2.28618 35.5656 1.91713L40.175 0.102885C40.3356 0.0356961 40.5083 0.000721903 40.6828 1.10582e-05C40.8574 -0.000699786 41.0303 0.032867 41.1915 0.0987451C41.3527 0.164623 41.4989 0.261487 41.6216 0.383661C41.7442 0.505835 41.8409 0.650861 41.9058 0.810242C41.9708 0.969623 42.0027 1.14015 41.9998 1.31184C41.9969 1.48352 41.9592 1.65291 41.8889 1.81008C41.8186 1.96725 41.7171 2.10903 41.5904 2.22712C41.4637 2.34521 41.3143 2.43723 41.1509 2.49779L36.5389 4.31204C34.9752 4.92734 33.2309 4.92734 31.6672 4.31204L29.007 3.26427C28.069 2.89522 27.0226 2.89522 26.0845 3.26427L23.4217 4.31204C21.858 4.92734 20.1137 4.92734 18.55 4.31204L15.8898 3.26427C14.9518 2.89522 13.9054 2.89522 12.9673 3.26427L10.3045 4.31204C8.74083 4.92734 6.99646 4.92734 5.43278 4.31204L0.823392 2.49779C0.5006 2.37043 0.24244 2.12217 0.105676 1.8076C-0.0310887 1.49303 -0.0352613 1.13792 0.0940755 0.820325ZM0.0940755 8.56249C0.223552 8.24495 0.475921 7.99099 0.795694 7.85646C1.11547 7.72192 1.47646 7.71781 1.79931 7.84505L6.4087 9.65929C7.34675 10.0283 8.39316 10.0283 9.33121 9.65929L11.9914 8.61152C13.5551 7.99622 15.2994 7.99622 16.8631 8.61152L19.5259 9.65929C20.464 10.0283 21.5104 10.0283 22.4484 9.65929L25.1086 8.61152C26.6723 7.99622 28.4166 7.99622 29.9803 8.61152L32.6431 9.65929C33.5812 10.0283 34.6276 10.0283 35.5656 9.65929L40.175 7.84505C40.3356 7.77786 40.5083 7.74288 40.6828 7.74217C40.8574 7.74146 41.0303 7.77503 41.1915 7.84091C41.3527 7.90678 41.4989 8.00365 41.6216 8.12582C41.7442 8.248 41.8409 8.39302 41.9058 8.5524C41.9708 8.71178 42.0027 8.88231 41.9998 9.054C41.9969 9.22569 41.9592 9.39507 41.8889 9.55224C41.8186 9.70941 41.7171 9.85119 41.5904 9.96928C41.4637 10.0874 41.3143 10.1794 41.1509 10.24L36.5389 12.0542C34.9752 12.6695 33.2309 12.6695 31.6672 12.0542L29.007 11.0064C28.069 10.6374 27.0226 10.6374 26.0845 11.0064L23.4217 12.0542C21.858 12.6695 20.1137 12.6695 18.55 12.0542L15.8898 11.0064C14.9518 10.6374 13.9054 10.6374 12.9673 11.0064L10.3045 12.0542C8.74083 12.6695 6.99646 12.6695 5.43278 12.0542L0.823392 10.24C0.5006 10.1126 0.24244 9.86433 0.105676 9.54976C-0.0310887 9.2352 -0.0352613 8.88008 0.0940755 8.56249ZM0.0940755 16.3046C0.223552 15.9871 0.475921 15.7332 0.795694 15.5986C1.11547 15.4641 1.47646 15.46 1.79931 15.5872L6.4087 17.4015C7.34675 17.7705 8.39316 17.7705 9.33121 17.4015L11.9914 16.3537C13.5551 15.7384 15.2994 15.7384 16.8631 16.3537L19.5259 17.4015C20.464 17.7705 21.5104 17.7705 22.4484 17.4015L25.1086 16.3537C26.6723 15.7384 28.4166 15.7384 29.9803 16.3537L32.6431 17.4015C33.5812 17.7705 34.6276 17.7705 35.5656 17.4015L40.175 15.5872C40.3356 15.52 40.5083 15.485 40.6828 15.4843C40.8574 15.4836 41.0303 15.5172 41.1915 15.5831C41.3527 15.6489 41.4989 15.7458 41.6216 15.868C41.7442 15.9902 41.8409 16.1352 41.9058 16.2946C41.9708 16.4539 42.0027 16.6245 41.9998 16.7962C41.9969 16.9678 41.9592 17.1372 41.8889 17.2944C41.8186 17.4516 41.7171 17.5933 41.5904 17.7114C41.4637 17.8295 41.3143 17.9216 41.1509 17.9821L36.5389 19.7964C34.9752 20.4117 33.2309 20.4117 31.6672 19.7964L29.007 18.7486C28.069 18.3795 27.0226 18.3795 26.0845 18.7486L23.4217 19.7964C21.858 20.4117 20.1137 20.4117 18.55 19.7964L15.8898 18.7486C14.9518 18.3795 13.9054 18.3795 12.9673 18.7486L10.3045 19.7964C8.74083 20.4117 6.99646 20.4117 5.43278 19.7964L0.823392 17.9821C0.5006 17.8547 0.24244 17.6065 0.105676 17.2919C-0.0310887 16.9774 -0.0352613 16.6222 0.0940755 16.3046ZM0.0940755 24.0468C0.223552 23.7293 0.475921 23.4753 0.795694 23.3408C1.11547 23.2062 1.47646 23.2021 1.79931 23.3294L6.4087 25.1436C7.34675 25.5127 8.39316 25.5127 9.33121 25.1436L11.9914 24.0958C13.5551 23.4805 15.2994 23.4805 16.8631 24.0958L19.5259 25.1436C20.464 25.5127 21.5104 25.5127 22.4484 25.1436L25.1086 24.0958C26.6723 23.4805 28.4166 23.4805 29.9803 24.0958L32.6431 25.1436C33.5812 25.5127 34.6276 25.5127 35.5656 25.1436L40.175 23.3294C40.3356 23.2622 40.5083 23.2272 40.6828 23.2265C40.8574 23.2258 41.0303 23.2593 41.1915 23.3252C41.3527 23.3911 41.4989 23.488 41.6216 23.6101C41.7442 23.7323 41.8409 23.8773 41.9058 24.0367C41.9708 24.1961 42.0027 24.3666 41.9998 24.5383C41.9969 24.71 41.9592 24.8794 41.8889 25.0366C41.8186 25.1937 41.7171 25.3355 41.5904 25.4536C41.4637 25.5717 41.3143 25.6637 41.1509 25.7243L36.5389 27.5385C34.9752 28.1538 33.2309 28.1538 31.6672 27.5385L29.007 26.4907C28.069 26.1217 27.0226 26.1217 26.0845 26.4907L23.4217 27.5385C21.858 28.1538 20.1137 28.1538 18.55 27.5385L15.8898 26.4907C14.9518 26.1217 13.9054 26.1217 12.9673 26.4907L10.3045 27.5385C8.74083 28.1538 6.99646 28.1538 5.43278 27.5385L0.823392 25.7243C0.5006 25.5969 0.24244 25.3486 0.105676 25.0341C-0.0310887 24.7195 -0.0352613 24.3644 0.0940755 24.0468Z" fill="#006EB6"/>
</svg>
