<svg width="18" height="39" viewBox="0 0 18 39" fill="none" xmlns="http://www.w3.org/2000/svg">
<path d="M12.063 30.4697C12.0626 31.14 11.8781 31.7972 11.5294 32.3697C11.1808 32.9421 10.6815 33.4077 10.0862 33.7156C9.49082 34.0235 8.8223 34.1618 8.15365 34.1154C7.48501 34.0691 6.84198 33.8398 6.29483 33.4527C5.74767 33.0656 5.31745 32.5355 5.05117 31.9204C4.7849 31.3053 4.69281 30.6289 4.78498 29.965C4.87715 29.3011 5.15003 28.6754 5.57379 28.1561C5.99756 27.6368 6.55591 27.244 7.18782 27.0206V15.8443C7.18782 15.521 7.31623 15.211 7.5448 14.9825C7.77337 14.7539 8.08337 14.6255 8.40661 14.6255C8.72985 14.6255 9.03986 14.7539 9.26843 14.9825C9.49699 15.211 9.6254 15.521 9.6254 15.8443V27.0206C10.3386 27.2727 10.956 27.7399 11.3926 28.3576C11.8291 28.9754 12.0634 29.7133 12.063 30.4697Z" fill="#006EB6"/>
<path d="M2.43758 6.09394C2.43758 4.47773 3.07962 2.92771 4.22246 1.78487C5.36529 0.642039 6.91531 0 8.53153 0C10.1477 0 11.6978 0.642039 12.8406 1.78487C13.9834 2.92771 14.6255 4.47773 14.6255 6.09394V24.4977C15.8012 25.6976 16.5965 27.218 16.9116 28.8682C17.2267 30.5183 17.0477 32.2247 16.3969 33.7735C15.7461 35.3223 14.6525 36.6445 13.2533 37.5742C11.8541 38.504 10.2115 39 8.53153 39C6.85156 39 5.20899 38.504 3.80978 37.5742C2.41057 36.6445 1.31699 35.3223 0.666189 33.7735C0.0153843 32.2247 -0.163683 30.5183 0.151441 28.8682C0.466565 27.218 1.26185 25.6976 2.43758 24.4977V6.09394ZM8.53153 2.43758C7.5618 2.43758 6.63178 2.8228 5.94608 3.5085C5.26038 4.1942 4.87516 5.12422 4.87516 6.09394V25.5629L4.46808 25.9285C3.54807 26.7512 2.89957 27.8339 2.60839 29.0333C2.3172 30.2327 2.39707 31.4922 2.83742 32.6452C3.27776 33.7982 4.05783 34.7903 5.07439 35.4903C6.09095 36.1902 7.29608 36.565 8.53031 36.565C9.76453 36.565 10.9697 36.1902 11.9862 35.4903C13.0028 34.7903 13.7828 33.7982 14.2232 32.6452C14.6635 31.4922 14.7434 30.2327 14.4522 29.0333C14.161 27.8339 13.5125 26.7512 12.5925 25.9285L12.1879 25.5629V6.09394C12.1879 5.12422 11.8027 4.1942 11.117 3.5085C10.4313 2.8228 9.50125 2.43758 8.53153 2.43758Z" fill="#006EB6"/>
</svg>
