<svg width="41" height="36" viewBox="0 0 41 36" fill="none" xmlns="http://www.w3.org/2000/svg">
<path fill-rule="evenodd" clip-rule="evenodd" d="M17.9909 1.45892C18.2445 1.01556 18.6101 0.647205 19.0509 0.391047C19.4917 0.134889 19.9921 0 20.5015 0C21.0108 0 21.5112 0.134889 21.952 0.391047C22.3928 0.647205 22.7584 1.01556 23.012 1.45892L40.5784 31.4567C41.7492 33.4571 40.3427 36 38.0678 36H2.93252C0.655061 36 -0.748815 33.4545 0.421936 31.4567L17.9909 1.45892Z" fill="#006EB6"/>
<path d="M20.5025 30C20.3604 30 20.224 29.9473 20.1235 29.8536C20.023 29.7598 19.9665 29.6326 19.9665 29.5V28.207L19.2739 28.854C19.1732 28.9478 19.0368 29.0004 18.8945 29.0003C18.7523 29.0002 18.6159 28.9474 18.5154 28.8535C18.4149 28.7596 18.3584 28.6323 18.3585 28.4996C18.3586 28.367 18.4153 28.2398 18.5159 28.146L19.9665 26.793V22.866L16.3213 24.829L15.7895 26.679C15.7525 26.8071 15.6625 26.9163 15.5393 26.9825C15.416 27.0487 15.2696 27.0665 15.1323 27.032C14.995 26.9975 14.8779 26.9136 14.807 26.7986C14.736 26.6836 14.7169 26.5471 14.7538 26.419L15.0079 25.537L13.8072 26.183C13.6841 26.2483 13.5384 26.2655 13.4018 26.2309C13.2652 26.1963 13.1488 26.1127 13.078 25.9983C13.0072 25.884 12.9878 25.7482 13.024 25.6205C13.0601 25.4929 13.149 25.3838 13.2711 25.317L14.4719 24.671L13.5241 24.434C13.4561 24.4169 13.3924 24.3875 13.3366 24.3475C13.2807 24.3074 13.2339 24.2575 13.1988 24.2006C13.1636 24.1437 13.1409 24.0809 13.1318 24.0157C13.1226 23.9506 13.1274 23.8844 13.1457 23.821C13.164 23.7576 13.1955 23.6981 13.2384 23.6461C13.2814 23.594 13.3349 23.5503 13.3959 23.5175C13.4569 23.4848 13.5243 23.4635 13.5941 23.455C13.6639 23.4465 13.7349 23.4509 13.8029 23.468L15.7842 23.963L19.4304 22L15.7852 20.037L13.8018 20.532C13.6654 20.5637 13.521 20.5442 13.3999 20.4775C13.2788 20.4109 13.1905 20.3026 13.1543 20.1759C13.118 20.0491 13.1365 19.9142 13.2059 19.8001C13.2753 19.686 13.39 19.602 13.5252 19.566L14.4719 19.329L13.2711 18.683C13.2097 18.6504 13.1557 18.6068 13.1124 18.5547C13.0691 18.5026 13.0372 18.443 13.0187 18.3793C13.0002 18.3157 12.9954 18.2493 13.0045 18.1839C13.0136 18.1185 13.0365 18.0554 13.0718 17.9983C13.1072 17.9412 13.1543 17.8912 13.2104 17.8512C13.2666 17.8111 13.3307 17.7818 13.399 17.765C13.4674 17.7481 13.5386 17.744 13.6087 17.753C13.6787 17.7619 13.7462 17.7837 13.8072 17.817L15.0079 18.463L14.7538 17.58C14.7343 17.5162 14.7287 17.4494 14.7371 17.3835C14.7456 17.3176 14.768 17.2539 14.8031 17.1962C14.8382 17.1385 14.8853 17.0878 14.9416 17.0473C14.9979 17.0067 15.0623 16.977 15.131 16.9598C15.1998 16.9427 15.2715 16.9385 15.342 16.9475C15.4125 16.9565 15.4804 16.9785 15.5416 17.0122C15.6029 17.0459 15.6564 17.0907 15.699 17.1439C15.7415 17.197 15.7723 17.2576 15.7895 17.322L16.3202 19.171L19.9665 21.134V17.207L18.5159 15.854C18.4661 15.8076 18.4265 15.7525 18.3995 15.6918C18.3725 15.6311 18.3586 15.5661 18.3585 15.5004C18.3585 15.4347 18.3723 15.3696 18.3992 15.3089C18.4261 15.2482 18.4656 15.193 18.5154 15.1465C18.5651 15.1 18.6242 15.0631 18.6893 15.0379C18.7544 15.0128 18.8241 14.9998 18.8945 14.9997C18.965 14.9997 19.0347 15.0126 19.0998 15.0377C19.1649 15.0628 19.2241 15.0996 19.2739 15.146L19.9665 15.793V14.5C19.9665 14.3674 20.023 14.2402 20.1235 14.1464C20.224 14.0527 20.3604 14 20.5025 14C20.6447 14 20.7811 14.0527 20.8816 14.1464C20.9821 14.2402 21.0386 14.3674 21.0386 14.5V15.793L21.7323 15.146C21.8329 15.0522 21.9694 14.9996 22.1116 14.9997C22.2539 14.9998 22.3903 15.0526 22.4908 15.1465C22.5913 15.2404 22.6477 15.3677 22.6476 15.5004C22.6475 15.633 22.5909 15.7602 22.4902 15.854L21.0386 17.207V21.134L24.6838 19.171L25.2156 17.321C25.2525 17.1929 25.3425 17.0837 25.4658 17.0175C25.589 16.9513 25.7354 16.9335 25.8728 16.968C26.0101 17.0025 26.1271 17.0864 26.1981 17.2014C26.2691 17.3164 26.2882 17.4529 26.2512 17.581L25.9982 18.463L27.199 17.817C27.322 17.7517 27.4678 17.7345 27.6044 17.7691C27.741 17.8037 27.8574 17.8873 27.9282 18.0017C27.999 18.116 28.0184 18.2518 27.9822 18.3795C27.946 18.5071 27.8572 18.6162 27.735 18.683L26.5343 19.329L27.481 19.566C27.6183 19.6005 27.7353 19.6844 27.8063 19.7994C27.8773 19.9144 27.8964 20.0509 27.8594 20.179C27.8224 20.3071 27.7324 20.4163 27.6092 20.4825C27.4859 20.5487 27.3395 20.5665 27.2022 20.532L25.2209 20.037L21.5747 22L25.2199 23.963L27.2022 23.468C27.3395 23.4337 27.4859 23.4516 27.609 23.5179C27.7322 23.5842 27.8221 23.6934 27.8589 23.8215C27.8957 23.9496 27.8765 24.0861 27.8054 24.201C27.7343 24.3158 27.6172 24.3997 27.4799 24.434L26.5332 24.671L27.734 25.317C27.8561 25.3838 27.9449 25.4929 27.9811 25.6205C28.0173 25.7482 27.9979 25.884 27.9271 25.9983C27.8563 26.1127 27.7399 26.1963 27.6033 26.2309C27.4667 26.2655 27.321 26.2483 27.1979 26.183L25.9971 25.537L26.2502 26.42C26.2697 26.4838 26.2754 26.5506 26.2669 26.6165C26.2584 26.6824 26.236 26.7461 26.2009 26.8038C26.1658 26.8615 26.1187 26.9122 26.0624 26.9527C26.0061 26.9933 25.9417 27.023 25.873 27.0402C25.8042 27.0573 25.7325 27.0615 25.662 27.0525C25.5915 27.0435 25.5237 27.0215 25.4624 26.9878C25.4011 26.9541 25.3476 26.9093 25.305 26.8561C25.2625 26.803 25.2317 26.7424 25.2145 26.678L24.6838 24.829L21.0386 22.866V26.793L22.4892 28.146C22.5898 28.2398 22.6464 28.367 22.6465 28.4996C22.6466 28.6323 22.5902 28.7596 22.4897 28.8535C22.3892 28.9474 22.2528 29.0002 22.1106 29.0003C21.9683 29.0004 21.8318 28.9478 21.7312 28.854L21.0375 28.207V29.5C21.0375 29.6326 20.9811 29.7598 20.8805 29.8536C20.78 29.9473 20.6447 30 20.5025 30Z" fill="white"/>
</svg>
