<svg width="72" height="36" viewBox="0 0 72 36" fill="none" xmlns="http://www.w3.org/2000/svg">
<path d="M48.7131 31.2955C45.8606 29.9864 43.5357 28.0091 41.7386 25.3636C39.9426 22.7182 39.0446 19.7318 39.0446 16.4045C39.0446 15.6955 39.0857 15 39.168 14.3182C39.2503 13.6364 39.3737 12.9682 39.5383 12.3136L37.6457 13.4182L36 10.5955L43.8583 6.09545L48.384 13.8682L45.504 15.5045L43.2823 11.6591C42.9806 12.3955 42.7546 13.1591 42.6043 13.95C42.4528 14.7409 42.3771 15.5591 42.3771 16.4045C42.3771 19.05 43.104 21.4571 44.5577 23.6258C46.0114 25.7935 47.9451 27.3955 50.3589 28.4318L48.7131 31.2955ZM61.3029 11.4545V8.18182H65.7874C64.5257 6.62727 63.0034 5.42018 61.2206 4.56055C59.4377 3.702 57.5451 3.27273 55.5429 3.27273C54.0343 3.27273 52.608 3.50455 51.264 3.96818C49.92 4.43182 48.6857 5.08636 47.5611 5.93182L45.9154 3.06818C47.2869 2.11364 48.7751 1.36364 50.3803 0.818182C51.9843 0.272727 53.6914 0 55.5017 0C57.6686 0 59.746 0.402 61.734 1.206C63.7232 2.01109 65.4994 3.17727 67.0629 4.70455V2.45455H70.3543V11.4545H61.3029ZM60.2331 36L52.3749 31.5L56.9006 23.7273L59.7394 25.3636L57.3943 29.3727C60.6309 28.9091 63.326 27.4565 65.4797 25.0151C67.6323 22.5747 68.7086 19.7045 68.7086 16.4045C68.7086 16.1045 68.702 15.8182 68.6888 15.5455C68.6746 15.2727 68.64 15 68.5851 14.7273H71.9177C71.9451 15 71.966 15.2662 71.9803 15.5258C71.9934 15.7844 72 16.0636 72 16.3636C72 20.0455 70.8963 23.3389 68.6888 26.244C66.4803 29.148 63.6069 31.1045 60.0686 32.1136L61.8789 33.1773L60.2331 36Z" fill="#006EB6"/>
<path d="M26.5194 20.6005C26.8186 21.0217 27.2476 21.3384 27.7438 21.5043C28.2401 21.6703 28.7776 21.6768 29.2779 21.523C29.7782 21.3691 30.2151 21.0629 30.5249 20.6491C30.8347 20.2353 31.0012 19.7355 31 19.2227C31.0012 18.7098 30.8347 18.21 30.5249 17.7962C30.2151 17.3824 29.7782 17.0762 29.2779 16.9224C28.7776 16.7685 28.2401 16.7751 27.7438 16.941C27.2476 17.107 26.8186 17.4236 26.5194 17.8449H25.364C25.364 15.6817 24.6595 13.7114 23.3914 12.0718L25.2795 10.2255C26.0685 10.3633 26.8716 10.1429 27.4775 9.57797C28.4215 8.62728 28.4215 7.09791 27.4775 6.13344C26.5053 5.21031 24.9413 5.21031 23.955 6.13344C23.3773 6.7259 23.1519 7.51126 23.2928 8.28283L21.4047 10.1291C20.1085 9.17841 18.5867 8.54462 16.91 8.31039V6.38145C17.3408 6.08888 17.6646 5.66935 17.8343 5.18409C18.004 4.69883 18.0107 4.17324 17.8534 3.684C17.6961 3.19477 17.383 2.76751 16.9598 2.46457C16.5366 2.16162 16.0255 1.99885 15.501 2.00001C14.9766 1.99885 14.4655 2.16162 14.0423 2.46457C13.6191 2.76751 13.306 3.19477 13.1487 3.684C12.9914 4.17324 12.998 4.69883 13.1678 5.18409C13.3375 5.66935 13.6613 6.08888 14.0921 6.38145V8.31039C12.824 8.4895 11.6404 8.88907 10.5696 9.49531L9.00558 7.30458C9.27329 6.58812 9.20284 5.76143 8.72378 5.10008C8.53806 4.84016 8.30173 4.61861 8.02833 4.44811C7.75493 4.27762 7.44982 4.16154 7.13048 4.1065C6.81114 4.05147 6.48383 4.05857 6.1673 4.1274C5.85077 4.19623 5.55123 4.32544 5.28583 4.50762C4.17272 5.26542 3.89093 6.76724 4.67996 7.85571C5.15902 8.53084 5.91988 8.88907 6.69483 8.88907L8.35744 11.2038C7.75157 11.7963 7.27251 12.4576 6.8639 13.1878C6.41974 13.0181 5.93495 12.9773 5.46763 13.0701C5.00032 13.163 4.57029 13.3857 4.22908 13.7114C3.28506 14.6759 3.28506 16.1915 4.22908 17.1559C4.63769 17.528 5.13084 17.7484 5.63808 17.8449C5.63808 18.5889 5.73671 19.3053 5.8917 19.9942L4.04591 20.4765C3.45414 19.9942 2.63692 19.7876 1.8197 19.9942C1.18817 20.1623 0.650786 20.5689 0.325774 21.1244C0.000760967 21.6799 -0.0852587 22.339 0.0866381 22.9565C0.258535 23.5741 0.674267 24.0996 1.24238 24.4174C1.81049 24.7352 2.48444 24.8193 3.11598 24.6512C3.91911 24.4308 4.52497 23.8521 4.77859 23.1357L6.90618 22.5707C7.54022 23.6592 8.38562 24.6237 9.37192 25.4228L7.82202 28.1784C7.04707 28.2887 6.34258 28.7158 5.93397 29.446C5.78039 29.7247 5.68444 30.0302 5.6516 30.3451C5.61876 30.66 5.64967 30.9781 5.74257 31.2813C5.83546 31.5846 5.98852 31.8669 6.19301 32.1123C6.3975 32.3577 6.64941 32.5613 6.93436 32.7114C7.2193 32.8616 7.53171 32.9554 7.85374 32.9876C8.17577 33.0197 8.50112 32.9895 8.8112 32.8986C9.12129 32.8078 9.41004 32.6581 9.66097 32.4581C9.9119 32.2582 10.1201 32.0118 10.2737 31.7332C10.6682 31.0167 10.6541 30.19 10.3019 29.5149L11.8095 26.8006C12.9508 27.2415 14.1907 27.4895 15.501 27.4895H15.7547C15.5715 27.8478 15.501 28.2611 15.501 28.702C15.6138 30.0385 16.7973 31.0305 18.15 30.9341C19.5026 30.8376 20.5312 29.6665 20.4325 28.3438C20.3762 27.6549 20.0239 27.0486 19.5167 26.6491C20.1789 26.3597 20.813 25.9877 21.4047 25.5606L24.7018 28.7847C24.5609 29.5563 24.7863 30.3416 25.364 30.9341C26.3503 31.8572 27.9002 31.8572 28.8865 30.9341C29.8728 30.0109 29.8305 28.454 28.8865 27.4895C28.2806 26.9246 27.4775 26.7042 26.6885 26.842L23.3914 23.6179C24.0818 22.7223 24.6172 21.7027 24.9554 20.6005H26.5194ZM13.3876 17.8449C12.2181 17.8449 11.2741 16.9217 11.2741 15.7781C11.2741 14.6345 12.2181 13.7114 13.3876 13.7114C14.557 13.7114 15.501 14.6345 15.501 15.7781C15.501 16.9217 14.557 17.8449 13.3876 17.8449ZM18.319 21.9783C17.5441 21.9783 16.91 21.3583 16.91 20.6005C16.91 19.8427 17.5441 19.2227 18.319 19.2227C19.094 19.2227 19.728 19.8427 19.728 20.6005C19.728 21.3583 19.094 21.9783 18.319 21.9783Z" fill="#006EB6"/>
</svg>
