<svg width="37" height="37" viewBox="0 0 37 37" fill="none" xmlns="http://www.w3.org/2000/svg">
<path d="M18.9301 2.4079C18.654 2.29672 18.346 2.29672 18.0699 2.4079L4.26888 7.95448L9.82812 10.1875L24.0592 4.46899L18.9301 2.4079ZM27.1719 5.72144L12.9408 11.44L18.5 13.673L32.7311 7.95448L27.1719 5.72144ZM34.6875 9.67167L19.6562 15.7132V34.1213L34.6875 28.0797V9.67167ZM17.3438 34.1236V15.7109L2.3125 9.67167V28.0821L17.3438 34.1236ZM17.2119 0.249214C18.0388 -0.0830714 18.9612 -0.0830714 19.7881 0.249214L36.2739 6.8763C36.4882 6.96262 36.6719 7.11144 36.8013 7.3036C36.9308 7.49576 36.9999 7.72246 37 7.95448V28.0821C36.9997 28.5464 36.861 29 36.6017 29.3843C36.3425 29.7687 35.9745 30.0661 35.5454 30.2384L18.9301 36.9166C18.654 37.0278 18.346 37.0278 18.0699 36.9166L1.45687 30.2384C1.02733 30.0665 0.658929 29.7692 0.399235 29.3848C0.13954 29.0004 0.000477136 28.5466 0 28.0821L0 7.95448C5.37424e-05 7.72246 0.0692449 7.49576 0.19866 7.3036C0.328075 7.11144 0.511786 6.96262 0.726125 6.8763L17.2119 0.249214Z" fill="#006EB6"/>
<path d="M9.50186 29C9.39761 29 9.29762 28.9605 9.22389 28.8902C9.15017 28.8198 9.10876 28.7245 9.10876 28.625V27.6552L8.60086 28.1405C8.52704 28.2108 8.42697 28.2503 8.32265 28.2502C8.21833 28.2501 8.11832 28.2105 8.04461 28.1401C7.9709 28.0697 7.92953 27.9742 7.9296 27.8747C7.92967 27.7752 7.97118 27.6798 8.045 27.6095L9.10876 26.5948V23.6495L6.43561 25.1217L6.04564 26.5092C6.01854 26.6053 5.95253 26.6872 5.86215 26.7368C5.77176 26.7865 5.6644 26.7999 5.56369 26.774C5.46298 26.7481 5.37716 26.6852 5.32511 26.599C5.27306 26.5127 5.25905 26.4103 5.28615 26.3142L5.47249 25.6528L4.59192 26.1372C4.50168 26.1862 4.39481 26.1991 4.29463 26.1732C4.19445 26.1472 4.10909 26.0845 4.05719 25.9988C4.00528 25.913 3.99104 25.8111 4.01757 25.7154C4.04411 25.6197 4.10926 25.5378 4.19881 25.4878L5.07938 25.0033L4.38436 24.8255C4.33449 24.8127 4.28776 24.7906 4.24682 24.7606C4.20588 24.7306 4.17155 24.6931 4.14578 24.6505C4.12001 24.6078 4.1033 24.5606 4.09662 24.5118C4.08993 24.4629 4.0934 24.4133 4.10683 24.3658C4.12025 24.3182 4.14336 24.2736 4.17485 24.2345C4.20633 24.1955 4.24557 24.1627 4.29032 24.1382C4.33508 24.1136 4.38447 24.0976 4.43568 24.0913C4.48689 24.0849 4.53891 24.0882 4.58878 24.101L6.04171 24.4722L8.71565 23L6.0425 21.5278L4.58799 21.899C4.48793 21.9228 4.38208 21.9081 4.29325 21.8582C4.20443 21.8082 4.13974 21.7269 4.11313 21.6319C4.08652 21.5369 4.10012 21.4356 4.15101 21.3501C4.20189 21.2645 4.28598 21.2015 4.38515 21.1745L5.07938 20.9967L4.19881 20.5122C4.15374 20.4878 4.11419 20.4551 4.08243 20.416C4.05066 20.3769 4.02732 20.3322 4.01373 20.2845C4.00015 20.2368 3.9966 20.187 4.00328 20.1379C4.00996 20.0889 4.02675 20.0416 4.05267 19.9988C4.07859 19.9559 4.11314 19.9184 4.15432 19.8884C4.1955 19.8583 4.24251 19.8364 4.29263 19.8237C4.34275 19.8111 4.395 19.808 4.44636 19.8147C4.49773 19.8214 4.5472 19.8377 4.59192 19.8628L5.47249 20.3472L5.28615 19.685C5.27185 19.6371 5.26768 19.587 5.27388 19.5376C5.28008 19.4882 5.29654 19.4404 5.32228 19.3971C5.34803 19.3539 5.38255 19.3159 5.42384 19.2855C5.46513 19.255 5.51235 19.2327 5.56277 19.2199C5.61318 19.207 5.66576 19.2039 5.71746 19.2106C5.76916 19.2174 5.81893 19.2339 5.86387 19.2592C5.90882 19.2844 5.94804 19.318 5.97925 19.3579C6.01045 19.3978 6.03303 19.4432 6.04564 19.4915L6.43482 20.8783L9.10876 22.3505V19.4053L8.045 18.3905C8.00845 18.3557 7.97945 18.3143 7.95965 18.2688C7.93985 18.2233 7.92964 18.1745 7.9296 18.1253C7.92956 18.076 7.9397 18.0272 7.95943 17.9817C7.97917 17.9361 8.00811 17.8947 8.04461 17.8599C8.0811 17.825 8.12444 17.7973 8.17215 17.7785C8.21986 17.7596 8.271 17.7498 8.32265 17.7498C8.3743 17.7498 8.42546 17.7594 8.47319 17.7783C8.52093 17.7971 8.56431 17.8247 8.60086 17.8595L9.10876 18.3447V17.375C9.10876 17.2755 9.15017 17.1802 9.22389 17.1098C9.29762 17.0395 9.39761 17 9.50186 17C9.60612 17 9.70611 17.0395 9.77984 17.1098C9.85356 17.1802 9.89497 17.2755 9.89497 17.375V18.3447L10.4037 17.8595C10.4775 17.7892 10.5775 17.7497 10.6819 17.7498C10.7862 17.7499 10.8862 17.7895 10.9599 17.8599C11.0336 17.9303 11.075 18.0258 11.0749 18.1253C11.0748 18.2248 11.0333 18.3202 10.9595 18.3905L9.89497 19.4053V22.3505L12.5681 20.8783L12.9581 19.4908C12.9852 19.3947 13.0512 19.3128 13.1416 19.2632C13.232 19.2135 13.3393 19.2001 13.44 19.226C13.5408 19.2519 13.6266 19.3148 13.6786 19.401C13.7307 19.4873 13.7447 19.5897 13.7176 19.6858L13.532 20.3472L14.4126 19.8628C14.5028 19.8138 14.6097 19.8009 14.7099 19.8268C14.8101 19.8528 14.8954 19.9155 14.9473 20.0012C14.9992 20.087 15.0135 20.1889 14.9869 20.2846C14.9604 20.3803 14.8953 20.4622 14.8057 20.5122L13.9251 20.9967L14.6194 21.1745C14.7201 21.2004 14.8059 21.2633 14.858 21.3495C14.91 21.4358 14.924 21.5382 14.8969 21.6342C14.8698 21.7303 14.8038 21.8122 14.7134 21.8618C14.623 21.9115 14.5157 21.9249 14.415 21.899L12.962 21.5278L10.2881 23L12.9612 24.4722L14.415 24.101C14.5157 24.0752 14.623 24.0887 14.7133 24.1384C14.8036 24.1881 14.8695 24.2701 14.8965 24.3661C14.9235 24.4622 14.9094 24.5646 14.8573 24.6507C14.8052 24.7369 14.7193 24.7997 14.6186 24.8255L13.9244 25.0033L14.8049 25.4878C14.8945 25.5378 14.9596 25.6197 14.9862 25.7154C15.0127 25.8111 14.9984 25.913 14.9465 25.9988C14.8946 26.0845 14.8093 26.1472 14.7091 26.1732C14.6089 26.1991 14.502 26.1862 14.4118 26.1372L13.5312 25.6528L13.7168 26.315C13.7311 26.3629 13.7353 26.413 13.7291 26.4624C13.7229 26.5118 13.7064 26.5596 13.6807 26.6029C13.6549 26.6461 13.6204 26.6841 13.5791 26.7145C13.5378 26.745 13.4906 26.7673 13.4402 26.7801C13.3898 26.793 13.3372 26.7961 13.2855 26.7894C13.2338 26.7826 13.184 26.7661 13.1391 26.7408C13.0941 26.7156 13.0549 26.682 13.0237 26.6421C12.9925 26.6022 12.9699 26.5568 12.9573 26.5085L12.5681 25.1217L9.89497 23.6495V26.5948L10.9587 27.6095C11.0325 27.6798 11.0741 27.7752 11.0741 27.8747C11.0742 27.9742 11.0328 28.0697 10.9591 28.1401C10.8854 28.2105 10.7854 28.2501 10.6811 28.2502C10.5768 28.2503 10.4767 28.2108 10.4029 28.1405L9.89419 27.6552V28.625C9.89419 28.7245 9.85277 28.8198 9.77905 28.8902C9.70533 28.9605 9.60612 29 9.50186 29Z" fill="#006EB6"/>
</svg>
