<svg width="26" height="26" viewBox="0 0 26 26" fill="none" xmlns="http://www.w3.org/2000/svg">
<path d="M22.4545 11.8182H26V14.1818H22.4545V11.8182ZM0 11.8182H3.54545V14.1818H0V11.8182ZM14.1818 0V3.54545H11.8182V0H14.1818ZM4.63273 2.95455L7.15 5.48364L5.47182 7.15L2.95455 4.64455L4.63273 2.95455ZM18.85 5.47182L21.3555 2.95455L23.0455 4.64455L20.5282 7.15L18.85 5.47182ZM13 5.90909C14.8806 5.90909 16.6842 6.65617 18.014 7.98597C19.3438 9.31577 20.0909 11.1194 20.0909 13C20.0909 15.6236 18.6609 17.9164 16.5455 19.1455V21.2727C16.5455 21.5862 16.4209 21.8868 16.1993 22.1084C15.9777 22.33 15.6771 22.4545 15.3636 22.4545H10.6364C10.3229 22.4545 10.0223 22.33 9.80069 22.1084C9.57906 21.8868 9.45455 21.5862 9.45455 21.2727V19.1455C7.33909 17.9164 5.90909 15.6236 5.90909 13C5.90909 11.1194 6.65617 9.31577 7.98597 7.98597C9.31577 6.65617 11.1194 5.90909 13 5.90909ZM15.3636 23.6364V24.8182C15.3636 25.1316 15.2391 25.4322 15.0175 25.6539C14.7959 25.8755 14.4953 26 14.1818 26H11.8182C11.5047 26 11.2041 25.8755 10.9825 25.6539C10.7609 25.4322 10.6364 25.1316 10.6364 24.8182V23.6364H15.3636ZM11.8182 20.0909H14.1818V17.5736C16.2264 17.0536 17.7273 15.1982 17.7273 13C17.7273 11.7462 17.2292 10.5438 16.3427 9.65731C15.4562 8.77078 14.2537 8.27273 13 8.27273C11.7462 8.27273 10.5438 8.77078 9.65731 9.65731C8.77078 10.5438 8.27273 11.7462 8.27273 13C8.27273 15.1982 9.77364 17.0536 11.8182 17.5736V20.0909Z" fill="#006EB6"/>
</svg>
