<svg width="41" height="31" viewBox="0 0 41 31" fill="none" xmlns="http://www.w3.org/2000/svg">
<path d="M5.4835e-09 3.76495C5.4835e-09 2.76642 0.396806 1.80879 1.10312 1.10273C1.80944 0.396663 2.76742 0 3.7663 0H26.3641C27.363 0 28.321 0.396663 29.0273 1.10273C29.7336 1.80879 30.1304 2.76642 30.1304 3.76495V7.5299H32.6915C33.2558 7.5304 33.8128 7.65765 34.3213 7.90224C34.8297 8.14684 35.2767 8.50252 35.6292 8.94301L39.3478 13.5864C39.8829 14.2546 40.1742 15.085 40.1739 15.9408V21.3347C40.1739 22.3332 39.7771 23.2909 39.0708 23.9969C38.3645 24.703 37.4065 25.0997 36.4076 25.0997H35.1522C35.1522 26.431 34.6231 27.7079 33.6813 28.6493C32.7396 29.5907 31.4623 30.1196 30.1304 30.1196C28.7986 30.1196 27.5213 29.5907 26.5795 28.6493C25.6378 27.7079 25.1087 26.431 25.1087 25.0997H12.5543C12.5558 25.7688 12.4234 26.4314 12.165 27.0487C11.9065 27.6659 11.5273 28.2253 11.0495 28.6939C10.5716 29.1625 10.0049 29.5308 9.38267 29.7774C8.76039 30.0239 8.09509 30.1435 7.42588 30.1293C6.75667 30.1151 6.09706 29.9673 5.48582 29.6945C4.87459 29.4218 4.32406 29.0297 3.86661 28.5412C3.40916 28.0527 3.05401 27.4778 2.82205 26.8501C2.59009 26.2225 2.486 25.5548 2.51589 24.8863C1.78033 24.6275 1.14326 24.1469 0.692609 23.5107C0.241962 22.8745 -4.2062e-05 22.1142 5.4835e-09 21.3347V3.76495ZM3.24907 22.4793C3.70303 21.7363 4.34258 21.1242 5.10485 20.7031C5.86711 20.282 6.72587 20.0665 7.5967 20.0776C8.46754 20.0888 9.3205 20.3262 10.0717 20.7667C10.823 21.2071 11.4466 21.8354 11.8814 22.5897H25.7816C26.2233 21.8274 26.8569 21.1939 27.6196 20.7524V3.76495C27.6196 3.43211 27.4873 3.1129 27.2519 2.87754C27.0164 2.64219 26.6971 2.50997 26.3641 2.50997H3.7663C3.43334 2.50997 3.11402 2.64219 2.87858 2.87754C2.64314 3.1129 2.51087 3.43211 2.51087 3.76495V21.3347C2.51067 21.5763 2.58022 21.8128 2.71116 22.0158C2.84211 22.2188 3.02888 22.3797 3.24907 22.4793ZM30.1304 20.0797C31.0119 20.0798 31.8779 20.3117 32.6412 20.7523C33.4046 21.1929 34.0385 21.8266 34.4793 22.5897H36.4076C36.7406 22.5897 37.0599 22.4575 37.2953 22.2221C37.5308 21.9868 37.663 21.6676 37.663 21.3347V15.9383C37.6625 15.6535 37.5651 15.3773 37.3868 15.1552L33.6708 10.5117C33.5533 10.3648 33.4044 10.246 33.2349 10.1644C33.0654 10.0827 32.8797 10.0401 32.6915 10.0399H30.1304V20.0797ZM7.53261 22.5897C6.86668 22.5897 6.22803 22.8541 5.75716 23.3249C5.28628 23.7956 5.02174 24.434 5.02174 25.0997C5.02174 25.7654 5.28628 26.4038 5.75716 26.8745C6.22803 27.3452 6.86668 27.6096 7.53261 27.6096C8.19853 27.6096 8.83718 27.3452 9.30806 26.8745C9.77894 26.4038 10.0435 25.7654 10.0435 25.0997C10.0435 24.434 9.77894 23.7956 9.30806 23.3249C8.83718 22.8541 8.19853 22.5897 7.53261 22.5897ZM30.1304 22.5897C29.4645 22.5897 28.8259 22.8541 28.355 23.3249C27.8841 23.7956 27.6196 24.434 27.6196 25.0997C27.6196 25.7654 27.8841 26.4038 28.355 26.8745C28.8259 27.3452 29.4645 27.6096 30.1304 27.6096C30.7964 27.6096 31.435 27.3452 31.9059 26.8745C32.3768 26.4038 32.6413 25.7654 32.6413 25.0997C32.6413 24.434 32.3768 23.7956 31.9059 23.3249C31.435 22.8541 30.7964 22.5897 30.1304 22.5897Z" fill="#006EB6"/>
</svg>
