<svg width="32" height="32" viewBox="0 0 32 32" fill="none" xmlns="http://www.w3.org/2000/svg">
<path d="M31.28 14.5657L20.5714 9.13928V4.56964C20.5714 3.3577 20.0898 2.19539 19.2325 1.33842C18.3752 0.481443 17.2124 0 16 0C14.7876 0 13.6248 0.481443 12.7675 1.33842C11.9102 2.19539 11.4286 3.3577 11.4286 4.56964V9.13928L0.720001 14.5657C0.507354 14.6504 0.325037 14.7969 0.196664 14.9863C0.0682917 15.1758 -0.000221043 15.3994 5.35767e-07 15.6282V21.3402C5.35767e-07 21.6432 0.120408 21.9338 0.334736 22.148C0.549063 22.3623 0.839753 22.4826 1.14286 22.4826C1.25555 22.48 1.36723 22.4608 1.47429 22.4255L11.4286 18.2786V23.9906L7.48572 25.9556C7.2955 26.0514 7.13586 26.1984 7.02479 26.3801C6.91373 26.5617 6.85566 26.7708 6.85714 26.9837V30.8451C6.85714 31.1481 6.97755 31.4386 7.19188 31.6529C7.40621 31.8671 7.6969 31.9875 8 31.9875C8.10601 32.0042 8.21399 32.0042 8.32 31.9875L16 29.7027L23.68 31.9875C23.786 32.0042 23.894 32.0042 24 31.9875C24.3031 31.9875 24.5938 31.8671 24.8081 31.6529C25.0225 31.4386 25.1429 31.1481 25.1429 30.8451V26.9837C25.1443 26.7708 25.0863 26.5617 24.9752 26.3801C24.8641 26.1984 24.7045 26.0514 24.5143 25.9556L20.5714 23.9906V18.2786L30.5257 22.4027C30.6328 22.4379 30.7445 22.4572 30.8571 22.4598C31.1602 22.4598 31.4509 22.3394 31.6653 22.1252C31.8796 21.9109 32 21.6204 32 21.3174V15.6053C31.9957 15.3804 31.9251 15.1618 31.797 14.9769C31.6689 14.7919 31.4891 14.6489 31.28 14.5657ZM29.7143 19.5923L18.2857 14.8513V25.4072L22.8571 27.692V29.3257L16 27.3265L9.14286 29.3257V27.692L13.7143 25.4072V14.8513L2.28571 19.5923V16.3365L13.7143 10.5444V4.56964C13.7143 3.96367 13.9551 3.38252 14.3838 2.95403C14.8124 2.52554 15.3938 2.28482 16 2.28482C16.6062 2.28482 17.1876 2.52554 17.6162 2.95403C18.0449 3.38252 18.2857 3.96367 18.2857 4.56964V10.5444L29.7143 16.3365V19.5923Z" fill="#006EB6"/>
</svg>
