<svg width="48" height="36" viewBox="0 0 48 36" fill="none" xmlns="http://www.w3.org/2000/svg">
<path d="M40.5 3C40.8978 3 41.2794 3.15804 41.5607 3.43934C41.842 3.72064 42 4.10218 42 4.5V27H6V4.5C6 4.10218 6.15804 3.72064 6.43934 3.43934C6.72064 3.15804 7.10218 3 7.5 3H40.5ZM7.5 0C6.30653 0 5.16193 0.474106 4.31802 1.31802C3.47411 2.16193 3 3.30653 3 4.5V30H45V4.5C45 3.30653 44.5259 2.16193 43.682 1.31802C42.8381 0.474106 41.6935 0 40.5 0H7.5ZM0 31.5H48C48 32.6935 47.5259 33.8381 46.682 34.682C45.8381 35.5259 44.6935 36 43.5 36H4.5C3.30653 36 2.16193 35.5259 1.31802 34.682C0.474106 33.8381 0 32.6935 0 31.5Z" fill="#006EB6"/>
<path d="M23.0681 6.72745C23.311 5.75752 24.688 5.75752 24.9319 6.72745L25.0029 7.01344C25.0445 7.17963 25.1297 7.33169 25.2499 7.45382C25.37 7.57595 25.5206 7.66371 25.6861 7.70799C25.8516 7.75226 26.0259 7.75145 26.191 7.70563C26.3561 7.65981 26.5058 7.57065 26.6248 7.44741L26.8298 7.23642C27.5248 6.51747 28.7177 7.20642 28.4427 8.16736L28.3627 8.45135C28.3156 8.61599 28.3134 8.79022 28.3564 8.956C28.3993 9.12177 28.4858 9.27304 28.6069 9.39413C28.728 9.51522 28.8792 9.60171 29.045 9.64464C29.2108 9.68756 29.385 9.68537 29.5497 9.63827L29.8326 9.55728C30.7926 9.28229 31.4825 10.4752 30.7636 11.1702L30.5526 11.3752C30.4293 11.4942 30.3402 11.6439 30.2944 11.809C30.2485 11.9741 30.2477 12.1484 30.292 12.3139C30.3363 12.4794 30.4241 12.63 30.5462 12.7501C30.6683 12.8703 30.8204 12.9555 30.9866 12.9971L31.2725 13.0681C32.2425 13.311 32.2425 14.688 31.2725 14.9319L30.9866 15.0029C30.8204 15.0445 30.6683 15.1297 30.5462 15.2499C30.4241 15.37 30.3363 15.5206 30.292 15.6861C30.2477 15.8516 30.2485 16.0259 30.2944 16.191C30.3402 16.3561 30.4293 16.5058 30.5526 16.6248L30.7636 16.8298C31.4825 17.5248 30.7936 18.7177 29.8326 18.4427L29.5487 18.3627C29.384 18.3156 29.2098 18.3134 29.044 18.3564C28.8782 18.3993 28.727 18.4858 28.6059 18.6069C28.4848 18.728 28.3983 18.8792 28.3554 19.045C28.3124 19.2108 28.3146 19.385 28.3617 19.5497L28.4427 19.8326C28.7177 20.7926 27.5248 21.4825 26.8298 20.7636L26.6248 20.5526C26.5058 20.4293 26.3561 20.3402 26.191 20.2944C26.0259 20.2485 25.8516 20.2477 25.6861 20.292C25.5206 20.3363 25.37 20.4241 25.2499 20.5462C25.1297 20.6683 25.0445 20.8204 25.0029 20.9866L24.9319 21.2725C24.689 22.2425 23.312 22.2425 23.0681 21.2725L22.9971 20.9866C22.9555 20.8204 22.8703 20.6683 22.7501 20.5462C22.63 20.4241 22.4794 20.3363 22.3139 20.292C22.1484 20.2477 21.9741 20.2485 21.809 20.2944C21.6439 20.3402 21.4942 20.4293 21.3752 20.5526L21.1702 20.7636C20.4752 21.4825 19.2823 20.7936 19.5573 19.8326L19.6373 19.5487C19.6843 19.3841 19.6864 19.21 19.6436 19.0444C19.6007 18.8787 19.5143 18.7275 19.3933 18.6065C19.2724 18.4854 19.1213 18.3989 18.9557 18.3559C18.79 18.3128 18.6159 18.3149 18.4513 18.3617L18.1674 18.4427C17.2074 18.7177 16.5175 17.5248 17.2364 16.8298L17.4474 16.6248C17.5707 16.5058 17.6598 16.3561 17.7056 16.191C17.7515 16.0259 17.7523 15.8516 17.708 15.6861C17.6637 15.5206 17.5759 15.37 17.4538 15.2499C17.3317 15.1297 17.1796 15.0445 17.0134 15.0029L16.7275 14.9319C15.7575 14.689 15.7575 13.312 16.7275 13.0681L17.0134 12.9971C17.1796 12.9555 17.3317 12.8703 17.4538 12.7501C17.5759 12.63 17.6637 12.4794 17.708 12.3139C17.7523 12.1484 17.7515 11.9741 17.7056 11.809C17.6598 11.6439 17.5707 11.4942 17.4474 11.3752L17.2364 11.1702C16.5175 10.4752 17.2064 9.28229 18.1674 9.55728L18.4513 9.63727C18.6159 9.68428 18.79 9.68645 18.9556 9.64356C19.1213 9.60067 19.2725 9.51427 19.3935 9.39333C19.5146 9.27238 19.6011 9.12127 19.6441 8.95565C19.6872 8.79003 19.6851 8.61592 19.6383 8.45135L19.5573 8.16736C19.2823 7.20742 20.4752 6.51747 21.1702 7.23642L21.3752 7.44741C21.4942 7.57065 21.6439 7.65981 21.809 7.70563C21.9741 7.75145 22.1484 7.75226 22.3139 7.70799C22.4794 7.66371 22.63 7.57595 22.7501 7.45382C22.8703 7.33169 22.9555 7.17963 22.9971 7.01344L23.0681 6.72745ZM28.9727 14.5H24.25L21.4162 18.2787C22.138 18.7147 22.9584 18.961 23.801 18.9945C24.6436 19.0281 25.481 18.8479 26.2353 18.4707C26.9895 18.0936 27.636 17.5317 28.1147 16.8374C28.5933 16.1431 28.8885 15.339 28.9727 14.5ZM28.9727 13.5C28.8885 12.661 28.5933 11.8569 28.1147 11.1626C27.636 10.4683 26.9895 9.90642 26.2353 9.52925C25.481 9.15208 24.6436 8.9719 23.801 9.00547C22.9584 9.03905 22.138 9.28529 21.4162 9.72127L24.25 13.501L28.9727 13.5ZM21.0482 9.96725C21.0182 9.98825 20.9902 10.0102 20.9612 10.0322L21.0482 9.96725ZM20.6172 10.3222C20.1076 10.7897 19.7009 11.358 19.4228 11.9912C19.1448 12.6244 19.0016 13.3085 19.0023 14C19.0023 15.4549 19.6243 16.7648 20.6172 17.6778L23.375 14L20.6172 10.3222Z" fill="#006EB6"/>
</svg>
