<svg width="41" height="31" viewBox="0 0 41 31" fill="none" xmlns="http://www.w3.org/2000/svg">
<path d="M5.4835e-09 4.63458C5.4835e-09 3.63605 0.396806 2.67842 1.10312 1.97236C1.80944 1.26629 2.76742 0.869629 3.7663 0.869629H26.3641C27.363 0.869629 28.321 1.26629 29.0273 1.97236C29.7336 2.67842 30.1304 3.63605 30.1304 4.63458V8.39953H32.6915C33.2558 8.40003 33.8128 8.52728 34.3213 8.77187C34.8297 9.01647 35.2767 9.37215 35.6292 9.81264L39.3478 14.4561C39.8829 15.1242 40.1742 15.9546 40.1739 16.8104V22.2043C40.1739 23.2029 39.7771 24.1605 39.0708 24.8666C38.3645 25.5726 37.4065 25.9693 36.4076 25.9693H35.1522C35.1522 27.3007 34.6231 28.5775 33.6813 29.5189C32.7396 30.4603 31.4623 30.9892 30.1304 30.9892C28.7986 30.9892 27.5213 30.4603 26.5795 29.5189C25.6378 28.5775 25.1087 27.3007 25.1087 25.9693H12.5543C12.5558 26.6384 12.4234 27.3011 12.165 27.9183C11.9065 28.5355 11.5273 29.0949 11.0495 29.5635C10.5716 30.0321 10.0049 30.4005 9.38267 30.647C8.76039 30.8935 8.09509 31.0131 7.42588 30.9989C6.75667 30.9847 6.09706 30.8369 5.48582 30.5642C4.87459 30.2914 4.32406 29.8993 3.86661 29.4108C3.40916 28.9224 3.05401 28.3474 2.82205 27.7197C2.59009 27.0921 2.486 26.4244 2.51589 25.7559C1.78033 25.4971 1.14326 25.0165 0.692609 24.3803C0.241962 23.7442 -4.2062e-05 22.9839 5.4835e-09 22.2043V4.63458ZM3.24907 23.3489C3.70303 22.6059 4.34258 21.9938 5.10485 21.5727C5.86711 21.1517 6.72587 20.9361 7.5967 20.9472C8.46754 20.9584 9.3205 21.1958 10.0717 21.6363C10.823 22.0767 11.4466 22.705 11.8814 23.4593H25.7816C26.2233 22.697 26.8569 22.0635 27.6196 21.622V4.63458C27.6196 4.30174 27.4873 3.98253 27.2519 3.74717C27.0164 3.51182 26.6971 3.3796 26.3641 3.3796H3.7663C3.43334 3.3796 3.11402 3.51182 2.87858 3.74717C2.64314 3.98253 2.51087 4.30174 2.51087 4.63458V22.2043C2.51067 22.4459 2.58022 22.6824 2.71116 22.8854C2.84211 23.0884 3.02888 23.2494 3.24907 23.3489ZM30.1304 20.9494C31.0119 20.9494 31.8779 21.1813 32.6412 21.6219C33.4046 22.0625 34.0385 22.6962 34.4793 23.4593H36.4076C36.7406 23.4593 37.0599 23.3271 37.2953 23.0918C37.5308 22.8564 37.663 22.5372 37.663 22.2043V16.8079C37.6625 16.5231 37.5651 16.247 37.3868 16.0248L33.6708 11.3814C33.5533 11.2344 33.4044 11.1157 33.2349 11.034C33.0654 10.9523 32.8797 10.9098 32.6915 10.9095H30.1304V20.9494ZM7.53261 23.4593C6.86668 23.4593 6.22803 23.7238 5.75716 24.1945C5.28628 24.6652 5.02174 25.3036 5.02174 25.9693C5.02174 26.635 5.28628 27.2734 5.75716 27.7441C6.22803 28.2148 6.86668 28.4793 7.53261 28.4793C8.19853 28.4793 8.83718 28.2148 9.30806 27.7441C9.77894 27.2734 10.0435 26.635 10.0435 25.9693C10.0435 25.3036 9.77894 24.6652 9.30806 24.1945C8.83718 23.7238 8.19853 23.4593 7.53261 23.4593ZM30.1304 23.4593C29.4645 23.4593 28.8259 23.7238 28.355 24.1945C27.8841 24.6652 27.6196 25.3036 27.6196 25.9693C27.6196 26.635 27.8841 27.2734 28.355 27.7441C28.8259 28.2148 29.4645 28.4793 30.1304 28.4793C30.7964 28.4793 31.435 28.2148 31.9059 27.7441C32.3768 27.2734 32.6413 26.635 32.6413 25.9693C32.6413 25.3036 32.3768 24.6652 31.9059 24.1945C31.435 23.7238 30.7964 23.4593 30.1304 23.4593Z" fill="#006EB6"/>
</svg>
