<svg width="25" height="24" viewBox="0 0 25 24" fill="none" xmlns="http://www.w3.org/2000/svg">
<path d="M6.5 20.5L5 19L12.5 11.5L16.5 15.5L23.6 7.5L25 8.9L16.5 18.5L12.5 14.5L6.5 20.5Z" fill="#006EB6"/>
<path d="M19.8437 7.80012C19.9209 7.90882 20.0316 7.99055 20.1597 8.03337C20.2878 8.0762 20.4265 8.07788 20.5556 8.03818C20.6847 7.99848 20.7975 7.91947 20.8774 7.81268C20.9573 7.70589 21.0003 7.57691 21 7.44456C21.0003 7.31221 20.9573 7.18323 20.8774 7.07644C20.7975 6.96965 20.6847 6.89064 20.5556 6.85094C20.4265 6.81123 20.2878 6.81292 20.1597 6.85574C20.0316 6.89857 19.9209 6.98029 19.8437 7.08899H19.5456C19.5456 6.53076 19.3637 6.0223 19.0365 5.59918L19.5237 5.12272C19.7274 5.15828 19.9346 5.10139 20.091 4.95561C20.3346 4.71027 20.3346 4.31559 20.091 4.0667C19.8401 3.82847 19.4365 3.82847 19.1819 4.0667C19.0329 4.21959 18.9747 4.42226 19.011 4.62138L18.5238 5.09783C18.1893 4.85249 17.7966 4.68893 17.3639 4.62849V4.1307C17.475 4.05519 17.5586 3.94693 17.6024 3.8217C17.6462 3.69647 17.6479 3.56084 17.6073 3.43458C17.5667 3.30833 17.4859 3.19807 17.3767 3.11989C17.2675 3.04171 17.1356 2.9997 17.0003 3C16.8649 2.9997 16.733 3.04171 16.6238 3.11989C16.5146 3.19807 16.4338 3.30833 16.3932 3.43458C16.3526 3.56084 16.3543 3.69647 16.3981 3.8217C16.4419 3.94693 16.5255 4.05519 16.6367 4.1307V4.62849C16.3094 4.67471 16.004 4.77782 15.7276 4.93427L15.324 4.36892C15.3931 4.18403 15.3749 3.97069 15.2513 3.80002C15.2034 3.73294 15.1424 3.67577 15.0718 3.63177C15.0013 3.58777 14.9225 3.55782 14.8401 3.54361C14.7577 3.52941 14.6732 3.53125 14.5916 3.54901C14.5099 3.56677 14.4326 3.60011 14.3641 3.64713C14.0768 3.84269 14.0041 4.23025 14.2077 4.51115C14.3314 4.68538 14.5277 4.77782 14.7277 4.77782L15.1568 5.37517C15.0004 5.52807 14.8768 5.69874 14.7713 5.88719C14.6567 5.84339 14.5316 5.83285 14.411 5.85681C14.2904 5.88077 14.1794 5.93823 14.0914 6.0223C13.8478 6.2712 13.8478 6.66232 14.0914 6.91121C14.1968 7.00721 14.3241 7.0641 14.455 7.08899C14.455 7.281 14.4804 7.46589 14.5204 7.64367L14.0441 7.76812C13.8914 7.64367 13.6805 7.59034 13.4696 7.64367C13.3066 7.68705 13.1679 7.79196 13.0841 7.93533C13.0002 8.07869 12.978 8.24877 13.0224 8.40814C13.0667 8.56751 13.174 8.70312 13.3206 8.78513C13.4672 8.86715 13.6411 8.88886 13.8041 8.84548C14.0114 8.78859 14.1677 8.63925 14.2332 8.45436L14.7822 8.30858C14.9459 8.58948 15.164 8.83837 15.4186 9.0446L15.0186 9.75573C14.8186 9.78417 14.6368 9.8944 14.5313 10.0828C14.4917 10.1548 14.467 10.2336 14.4585 10.3149C14.45 10.3961 14.458 10.4782 14.482 10.5565C14.5059 10.6347 14.5454 10.7076 14.5982 10.7709C14.651 10.8342 14.716 10.8868 14.7895 10.9255C14.863 10.9643 14.9437 10.9885 15.0268 10.9968C15.1099 11.0051 15.1938 10.9973 15.2739 10.9738C15.3539 10.9504 15.4284 10.9118 15.4932 10.8602C15.5579 10.8086 15.6116 10.745 15.6513 10.6731C15.7531 10.4882 15.7494 10.2749 15.6585 10.1006L16.0476 9.40016C16.3421 9.51394 16.6621 9.57794 17.0003 9.57794H17.0657C17.0185 9.67039 17.0003 9.77706 17.0003 9.89084C17.0294 10.2357 17.3348 10.4917 17.6839 10.4669C18.0329 10.442 18.2984 10.1397 18.2729 9.7984C18.2584 9.62061 18.1675 9.46416 18.0366 9.36105C18.2075 9.28638 18.3711 9.19038 18.5238 9.08015L19.3747 9.91218C19.3383 10.1113 19.3965 10.314 19.5456 10.4669C19.8001 10.7051 20.2001 10.7051 20.4546 10.4669C20.7091 10.2286 20.6982 9.82684 20.4546 9.57794C20.2982 9.43216 20.091 9.37527 19.8873 9.41083L19.0365 8.57881C19.2147 8.34769 19.3528 8.08457 19.4401 7.80012H19.8437ZM16.4549 7.08899C16.1531 7.08899 15.9094 6.85077 15.9094 6.55565C15.9094 6.26053 16.1531 6.0223 16.4549 6.0223C16.7567 6.0223 17.0003 6.26053 17.0003 6.55565C17.0003 6.85077 16.7567 7.08899 16.4549 7.08899ZM17.7275 8.15569C17.5275 8.15569 17.3639 7.99568 17.3639 7.80012C17.3639 7.60456 17.5275 7.44456 17.7275 7.44456C17.9275 7.44456 18.0911 7.60456 18.0911 7.80012C18.0911 7.99568 17.9275 8.15569 17.7275 8.15569Z" fill="#006EB6"/>
<path d="M1 0V23H24" stroke="#006EB6" stroke-width="2"/>
</svg>
