<svg width="320" height="124" viewBox="0 0 320 124" fill="none" xmlns="http://www.w3.org/2000/svg">
<g clip-path="url(#clip0_370_79)">
<path d="M102.438 26.601L97.3134 21.4765L61.9237 56.8589L26.5423 21.4765L21.4096 26.601L56.7993 61.9917L21.4096 97.3741L26.5423 102.507L61.9237 67.1162L97.3134 102.507L102.438 97.3741L67.0564 61.9917L102.438 26.601Z" fill="white"/>
<path d="M21.791 78.4266L26.9154 83.5512L48.466 62.0083L26.8988 40.4406L21.7662 45.5651L34.5605 58.3598H0V65.6071H34.602L21.791 78.4266Z" fill="white"/>
<path d="M40.4478 97.0839L45.5721 102.217L58.3914 89.3971V124H65.6385V89.4468L78.4328 102.233L83.5572 97.1004L61.9901 75.541L40.4478 97.0839Z" fill="white"/>
<path d="M89.3947 58.3929L102.214 45.5734L97.0813 40.4489L75.539 61.9917L97.0978 83.5595L102.231 78.4349L89.4444 65.6485H123.997V58.3929H89.3947Z" fill="white"/>
<path d="M83.5489 26.9161L78.4245 21.7916L65.6053 34.6029V0H58.3582V34.5615L45.5638 21.7668L40.4395 26.8996L62.0066 48.4673L83.5489 26.9161Z" fill="white"/>
<path d="M296.128 45.0592H306.335L318.673 78.949H283.64L296.128 45.0592ZM306.153 70.2423L301.302 56.4028H301.211L296.119 70.2423H306.153Z" fill="white"/>
<path d="M163.541 78.949H151.866L141.75 45.0592H152.289L157.844 65.6071H157.935L163.391 45.0592H174.121L163.541 78.949Z" fill="white"/>
<path d="M182.794 45.0592H193.002L205.34 78.949H170.307L182.794 45.0592ZM192.819 70.2423L187.968 56.4028H187.877L182.786 70.2423H192.819Z" fill="white"/>
<path d="M207.479 45.0592H217.927V70.2672H232.919V78.949H207.479V45.0592Z" fill="white"/>
<path d="M246.435 45.0592H235.995V78.949H246.435V45.0592Z" fill="white"/>
<path d="M251.741 45.0592H268.872C280.166 45.0592 284.154 53.4094 284.154 61.9585C284.154 72.3568 278.648 78.949 266.832 78.949H251.741V45.0592ZM262.181 70.2672H266.26C272.761 70.2672 273.715 65.0017 273.715 61.8176C273.715 59.6782 273.051 53.7494 265.506 53.7494H262.181V70.2672Z" fill="white"/>
<path d="M142.612 94.8782H143.599V101.694H146.866V102.523H142.612V94.8865V94.8782Z" fill="white"/>
<path d="M149.204 100.11L148.408 102.515H147.388L149.983 94.8782H151.177L153.781 102.515H152.728L151.915 100.11H149.204ZM151.708 99.3393L150.962 97.1419C150.788 96.6444 150.68 96.1883 150.564 95.7488H150.539C150.423 96.2049 150.298 96.6693 150.158 97.1336L149.411 99.3476H151.716L151.708 99.3393Z" fill="white"/>
<path d="M154.909 94.9777C155.34 94.8865 156.02 94.8201 156.708 94.8201C157.695 94.8201 158.333 94.9943 158.806 95.3757C159.204 95.6742 159.444 96.122 159.444 96.7273C159.444 97.4653 158.955 98.1121 158.151 98.4023V98.4272C158.881 98.6096 159.726 99.2066 159.726 100.343C159.726 100.998 159.469 101.495 159.08 101.877C158.549 102.366 157.687 102.59 156.434 102.59C155.755 102.59 155.232 102.548 154.9 102.499V94.986L154.909 94.9777ZM155.896 98.1038H156.791C157.836 98.1038 158.449 97.5565 158.449 96.8268C158.449 95.9313 157.769 95.583 156.774 95.583C156.318 95.583 156.061 95.6162 155.904 95.6493V98.1121L155.896 98.1038ZM155.896 101.769C156.086 101.802 156.368 101.81 156.725 101.81C157.745 101.81 158.69 101.437 158.69 100.326C158.69 99.2813 157.794 98.8501 156.716 98.8501H155.904V101.761L155.896 101.769Z" fill="white"/>
<path d="M167.587 98.6179C167.587 101.246 165.987 102.64 164.038 102.64C162.09 102.64 160.605 101.072 160.605 98.7589C160.605 96.3293 162.114 94.7455 164.154 94.7455C166.194 94.7455 167.587 96.3459 167.587 98.6096V98.6179ZM161.658 98.7423C161.658 100.376 162.546 101.835 164.096 101.835C165.647 101.835 166.542 100.392 166.542 98.6594C166.542 97.1419 165.746 95.5498 164.104 95.5498C162.463 95.5498 161.658 97.059 161.658 98.734V98.7423Z" fill="white"/>
<path d="M168.864 94.9777C169.362 94.8782 170.075 94.8201 170.755 94.8201C171.808 94.8201 172.488 95.0108 172.968 95.442C173.35 95.782 173.566 96.3044 173.566 96.8931C173.566 97.9048 172.927 98.5681 172.123 98.8418V98.875C172.711 99.0823 173.06 99.6212 173.242 100.417C173.491 101.487 173.673 102.217 173.831 102.515H172.811C172.687 102.3 172.512 101.645 172.297 100.691C172.073 99.6378 171.658 99.2398 170.763 99.2066H169.834V102.515H168.847V94.9777H168.864ZM169.851 98.4604H170.862C171.915 98.4604 172.587 97.8799 172.587 97.0092C172.587 96.0225 171.874 95.5913 170.829 95.583C170.357 95.583 170.017 95.6245 169.851 95.6742V98.4604Z" fill="white"/>
<path d="M176.26 100.11L175.464 102.515H174.444L177.04 94.8782H178.234L180.837 102.515H179.784L178.972 100.11H176.26ZM178.765 99.3393L178.018 97.1419C177.844 96.6444 177.736 96.1883 177.62 95.7488H177.595C177.479 96.2049 177.355 96.6693 177.214 97.1336L176.468 99.3476H178.773L178.765 99.3393Z" fill="white"/>
<path d="M182.546 95.7157H180.224V94.8782H185.879V95.7157H183.541V102.515H182.546V95.7157Z" fill="white"/>
<path d="M192.968 98.6179C192.968 101.246 191.368 102.64 189.42 102.64C187.471 102.64 185.987 101.072 185.987 98.7589C185.987 96.3293 187.496 94.7455 189.536 94.7455C191.575 94.7455 192.968 96.3459 192.968 98.6096V98.6179ZM187.04 98.7423C187.04 100.376 187.927 101.835 189.478 101.835C191.028 101.835 191.924 100.392 191.924 98.6594C191.924 97.1419 191.128 95.5498 189.486 95.5498C187.844 95.5498 187.04 97.059 187.04 98.734V98.7423ZM191.136 93.1202L189.693 94.4387H188.881L189.934 93.1202H191.136Z" fill="white"/>
<path d="M194.254 94.9777C194.751 94.8782 195.464 94.8201 196.144 94.8201C197.197 94.8201 197.877 95.0108 198.358 95.442C198.74 95.782 198.955 96.3044 198.955 96.8931C198.955 97.9048 198.317 98.5681 197.512 98.8418V98.875C198.101 99.0823 198.449 99.6212 198.632 100.417C198.881 101.487 199.063 102.217 199.221 102.515H198.201C198.076 102.3 197.902 101.645 197.687 100.691C197.463 99.6378 197.048 99.2398 196.153 99.2066H195.224V102.515H194.237V94.9777H194.254ZM195.24 98.4604H196.252C197.305 98.4604 197.977 97.8799 197.977 97.0092C197.977 96.0225 197.264 95.5913 196.219 95.583C195.746 95.583 195.406 95.6245 195.24 95.6742V98.4604Z" fill="white"/>
<path d="M201.335 94.8782V102.515H200.348V94.8782H201.335Z" fill="white"/>
<path d="M209.594 98.6179C209.594 101.246 207.993 102.64 206.045 102.64C204.096 102.64 202.612 101.072 202.612 98.7589C202.612 96.3293 204.121 94.7455 206.161 94.7455C208.201 94.7455 209.594 96.3459 209.594 98.6096V98.6179ZM203.665 98.7423C203.665 100.376 204.552 101.835 206.103 101.835C207.653 101.835 208.549 100.392 208.549 98.6594C208.549 97.1419 207.753 95.5498 206.111 95.5498C204.469 95.5498 203.665 97.059 203.665 98.734V98.7423Z" fill="white"/>
<path d="M213.284 94.9777C213.881 94.8865 214.602 94.8201 215.381 94.8201C216.799 94.8201 217.811 95.1518 218.474 95.7737C219.154 96.3956 219.552 97.2829 219.552 98.5184C219.552 99.7539 219.171 100.782 218.449 101.487C217.736 102.2 216.559 102.59 215.075 102.59C214.37 102.59 213.781 102.557 213.284 102.499V94.986V94.9777ZM214.27 101.736C214.519 101.777 214.884 101.794 215.265 101.794C217.371 101.794 218.516 100.616 218.516 98.5516C218.524 96.7522 217.504 95.6079 215.423 95.6079C214.909 95.6079 214.527 95.6493 214.27 95.7074V101.736Z" fill="white"/>
<path d="M224.793 98.933H221.824V101.686H225.133V102.515H220.837V94.8782H224.967V95.7074H221.824V98.1204H224.793V98.933Z" fill="white"/>
<path d="M232.778 98.933H229.809V101.686H233.118V102.515H228.823V94.8782H232.952V95.7074H229.809V98.1204H232.778V98.933Z" fill="white"/>
<path d="M234.395 102.515V94.8782H235.473L237.919 98.7423C238.483 99.6378 238.93 100.442 239.287 101.222H239.312C239.221 100.193 239.196 99.2564 239.196 98.0706V94.8699H240.124V102.507H239.129L236.7 98.6262C236.169 97.7721 235.655 96.9014 235.274 96.0722H235.24C235.299 97.0507 235.323 97.9628 235.323 99.2315V102.499H234.395V102.515Z" fill="white"/>
<path d="M241.725 101.313C242.164 101.586 242.811 101.81 243.491 101.81C244.502 101.81 245.091 101.28 245.091 100.508C245.091 99.7954 244.685 99.3891 243.648 98.991C242.405 98.5516 241.633 97.9048 241.633 96.8268C241.633 95.6327 242.62 94.7538 244.104 94.7538C244.884 94.7538 245.456 94.9362 245.796 95.1269L245.522 95.9313C245.274 95.7986 244.76 95.5664 244.071 95.5664C243.027 95.5664 242.629 96.1883 242.629 96.7107C242.629 97.4238 243.093 97.7804 244.146 98.1867C245.439 98.6842 246.095 99.3061 246.095 100.434C246.095 101.611 245.224 102.631 243.416 102.631C242.678 102.631 241.874 102.416 241.468 102.142L241.716 101.313H241.725Z" fill="white"/>
<path d="M248.69 100.11L247.894 102.515H246.874L249.469 94.8782H250.663L253.267 102.515H252.214L251.401 100.11H248.69ZM251.194 99.3393L250.448 97.1419C250.274 96.6444 250.166 96.1883 250.05 95.7488H250.025C249.909 96.2049 249.784 96.6693 249.643 97.1336L248.897 99.3476H251.202L251.194 99.3393Z" fill="white"/>
<path d="M255.381 94.8782V102.515H254.395V94.8782H255.381Z" fill="white"/>
<path d="M263.632 98.6179C263.632 101.246 262.031 102.64 260.083 102.64C258.134 102.64 256.65 101.072 256.65 98.7589C256.65 96.3293 258.159 94.7455 260.199 94.7455C262.239 94.7455 263.632 96.3459 263.632 98.6096V98.6179ZM257.703 98.7423C257.703 100.376 258.59 101.835 260.141 101.835C261.692 101.835 262.587 100.392 262.587 98.6594C262.587 97.1419 261.791 95.5498 260.149 95.5498C258.507 95.5498 257.703 97.059 257.703 98.734V98.7423Z" fill="white"/>
<path d="M264.784 101.313C265.224 101.586 265.871 101.81 266.551 101.81C267.562 101.81 268.151 101.28 268.151 100.508C268.151 99.7954 267.745 99.3891 266.708 98.991C265.464 98.5516 264.693 97.9048 264.693 96.8268C264.693 95.6327 265.68 94.7538 267.164 94.7538C267.944 94.7538 268.516 94.9362 268.856 95.1269L268.582 95.9313C268.333 95.7986 267.819 95.5664 267.131 95.5664C266.086 95.5664 265.688 96.1883 265.688 96.7107C265.688 97.4238 266.153 97.7804 267.206 98.1867C268.499 98.6842 269.154 99.3061 269.154 100.434C269.154 101.611 268.284 102.631 266.476 102.631C265.738 102.631 264.934 102.416 264.527 102.142L264.776 101.313H264.784Z" fill="white"/>
<path d="M273.914 95.7157H271.592V94.8782H277.247V95.7157H274.909V102.515H273.914V95.7157Z" fill="white"/>
<path d="M282.056 98.933H279.088V101.686H282.396V102.515H278.101V94.8782H282.231V95.7074H279.088V98.1204H282.056V98.933ZM281.866 93.1368L280.423 94.4636H279.61L280.663 93.1368H281.866Z" fill="white"/>
<path d="M283.673 94.9777C284.171 94.8782 284.884 94.8201 285.564 94.8201C286.617 94.8201 287.297 95.0108 287.778 95.442C288.159 95.782 288.375 96.3044 288.375 96.8931C288.375 97.9048 287.736 98.5681 286.932 98.8418V98.875C287.521 99.0823 287.869 99.6212 288.051 100.417C288.3 101.487 288.483 102.217 288.64 102.515H287.62C287.496 102.3 287.322 101.645 287.106 100.691C286.882 99.6378 286.468 99.2398 285.572 99.2066H284.643V102.515H283.657V94.9777H283.673ZM284.66 98.4604H285.672C286.725 98.4604 287.396 97.8799 287.396 97.0092C287.396 96.0225 286.683 95.5913 285.638 95.583C285.166 95.583 284.826 95.6245 284.66 95.6742V98.4604Z" fill="white"/>
<path d="M296.219 99.1652C296.161 98.0955 296.095 96.8185 296.103 95.8649H296.07C295.813 96.7605 295.489 97.7141 295.108 98.7672L293.756 102.474H293.01L291.774 98.8335C291.41 97.7555 291.103 96.7688 290.887 95.8649H290.862C290.837 96.8185 290.779 98.0955 290.713 99.2398L290.506 102.515H289.569L290.099 94.8782H291.36L292.662 98.5764C292.977 99.5134 293.242 100.359 293.433 101.147H293.466C293.657 100.376 293.93 99.5383 294.27 98.5764L295.63 94.8782H296.891L297.363 102.515H296.401L296.211 99.1569L296.219 99.1652Z" fill="white"/>
<path d="M299.884 94.8782V102.515H298.897V94.8782H299.884Z" fill="white"/>
<path d="M306.949 102.266C306.584 102.449 305.862 102.631 304.934 102.631C302.778 102.631 301.161 101.271 301.161 98.7672C301.161 96.2629 302.786 94.7538 305.149 94.7538C306.103 94.7538 306.7 94.9611 306.965 95.0938L306.725 95.8981C306.352 95.7157 305.821 95.583 305.182 95.583C303.391 95.583 302.197 96.7273 302.197 98.734C302.197 100.608 303.275 101.81 305.133 101.81C305.73 101.81 306.343 101.686 306.741 101.495L306.949 102.275V102.266Z" fill="white"/>
<path d="M314.478 98.6179C314.478 101.246 312.877 102.64 310.929 102.64C308.98 102.64 307.496 101.072 307.496 98.7589C307.496 96.3293 309.005 94.7455 311.045 94.7455C313.085 94.7455 314.478 96.3459 314.478 98.6096V98.6179ZM308.549 98.7423C308.549 100.376 309.436 101.835 310.987 101.835C312.537 101.835 313.433 100.392 313.433 98.6594C313.433 97.1419 312.637 95.5498 310.995 95.5498C309.353 95.5498 308.549 97.059 308.549 98.734V98.7423Z" fill="white"/>
<path d="M315.622 101.313C316.061 101.586 316.708 101.81 317.388 101.81C318.4 101.81 318.988 101.28 318.988 100.508C318.988 99.7954 318.582 99.3891 317.546 98.991C316.302 98.5516 315.531 97.9048 315.531 96.8268C315.531 95.6327 316.517 94.7538 318.002 94.7538C318.781 94.7538 319.353 94.9362 319.693 95.1269L319.42 95.9313C319.171 95.7986 318.657 95.5664 317.968 95.5664C316.924 95.5664 316.526 96.1883 316.526 96.7107C316.526 97.4238 316.99 97.7804 318.043 98.1867C319.337 98.6842 319.992 99.3061 319.992 100.434C319.992 101.611 319.121 102.631 317.313 102.631C316.575 102.631 315.771 102.416 315.365 102.142L315.614 101.313H315.622Z" fill="white"/>
</g>
<defs>
<clipPath id="clip0_370_79">
<rect width="320" height="124" fill="white"/>
</clipPath>
</defs>
</svg>
