<svg width="28" height="17" viewBox="0 0 28 17" fill="none" xmlns="http://www.w3.org/2000/svg">
<path fill-rule="evenodd" clip-rule="evenodd" d="M-1.16426e-06 8.5C-1.18615e-06 8.75045 0.105349 8.99063 0.292874 9.16773C0.480397 9.34482 0.734736 9.44431 0.999936 9.44431L24.5844 9.44431L18.2908 15.3859C18.1979 15.4737 18.1241 15.578 18.0738 15.6927C18.0235 15.8074 17.9976 15.9303 17.9976 16.0545C17.9976 16.1787 18.0235 16.3016 18.0738 16.4163C18.1241 16.531 18.1979 16.6353 18.2908 16.7231C18.3838 16.8109 18.4942 16.8805 18.6156 16.928C18.7371 16.9755 18.8673 17 18.9988 17C19.1303 17 19.2605 16.9755 19.3819 16.928C19.5034 16.8805 19.6138 16.8109 19.7067 16.7231L27.7062 9.16857C27.7994 9.08086 27.8732 8.97665 27.9236 8.86192C27.9741 8.7472 28 8.62421 28 8.5C28 8.37579 27.9741 8.2528 27.9236 8.13808C27.8732 8.02335 27.7994 7.91915 27.7062 7.83143L19.7067 0.276933C19.6138 0.189134 19.5034 0.119489 19.3819 0.071973C19.2605 0.0244572 19.1303 1.13193e-06 18.9988 1.12044e-06C18.8673 1.10894e-06 18.7371 0.0244571 18.6156 0.071973C18.4942 0.119489 18.3838 0.189134 18.2908 0.276933C18.1979 0.36473 18.1241 0.468963 18.0738 0.583676C18.0235 0.69839 17.9976 0.82134 17.9976 0.945504C17.9976 1.06967 18.0235 1.19262 18.0738 1.30733C18.1241 1.42205 18.1979 1.52628 18.2908 1.61408L24.5844 7.55569L0.999936 7.55569C0.734736 7.55569 0.480397 7.65518 0.292874 7.83227C0.105349 8.00936 -1.14236e-06 8.24955 -1.16426e-06 8.5Z" fill="#020C15"/>
</svg>
