<svg width="43" height="43" viewBox="0 0 43 43" fill="none" xmlns="http://www.w3.org/2000/svg">
<path fill-rule="evenodd" clip-rule="evenodd" d="M2.6875 21.5C2.6875 26.4894 4.66953 31.2744 8.19755 34.8024C11.7256 38.3305 16.5106 40.3125 21.5 40.3125C26.4894 40.3125 31.2744 38.3305 34.8024 34.8024C38.3305 31.2744 40.3125 26.4894 40.3125 21.5C40.3125 16.5106 38.3305 11.7256 34.8024 8.19755C31.2744 4.66953 26.4894 2.6875 21.5 2.6875C16.5106 2.6875 11.7256 4.66953 8.19755 8.19755C4.66953 11.7256 2.6875 16.5106 2.6875 21.5ZM43 21.5C43 27.2022 40.7348 32.6708 36.7028 36.7028C32.6708 40.7348 27.2022 43 21.5 43C15.7978 43 10.3292 40.7348 6.2972 36.7028C2.26517 32.6708 0 27.2022 0 21.5C0 15.7978 2.26517 10.3292 6.2972 6.2972C10.3292 2.26517 15.7978 0 21.5 0C27.2022 0 32.6708 2.26517 36.7028 6.2972C40.7348 10.3292 43 15.7978 43 21.5ZM22.8438 12.0938C22.8438 11.7374 22.7022 11.3956 22.4502 11.1436C22.1982 10.8916 21.8564 10.75 21.5 10.75C21.1436 10.75 20.8018 10.8916 20.5498 11.1436C20.2978 11.3956 20.1562 11.7374 20.1562 12.0938V27.6624L14.3889 21.8924C14.1366 21.6401 13.7943 21.4983 13.4375 21.4983C13.0807 21.4983 12.7384 21.6401 12.4861 21.8924C12.2338 22.1447 12.0921 22.4869 12.0921 22.8438C12.0921 23.2006 12.2338 23.5428 12.4861 23.7951L20.5486 31.8576C20.6734 31.9828 20.8217 32.082 20.985 32.1498C21.1482 32.2175 21.3232 32.2524 21.5 32.2524C21.6768 32.2524 21.8518 32.2175 22.015 32.1498C22.1783 32.082 22.3266 31.9828 22.4514 31.8576L30.5139 23.7951C30.7662 23.5428 30.9079 23.2006 30.9079 22.8438C30.9079 22.4869 30.7662 22.1447 30.5139 21.8924C30.2616 21.6401 29.9193 21.4983 29.5625 21.4983C29.2057 21.4983 28.8634 21.6401 28.6111 21.8924L22.8438 27.6624V12.0938Z" fill="#003365"/>
</svg>
