<svg width="41" height="31" viewBox="0 0 41 31" fill="none" xmlns="http://www.w3.org/2000/svg">
<path d="M5.4835e-09 4.63458C5.4835e-09 3.63605 0.396806 2.67842 1.10312 1.97236C1.80944 1.26629 2.76742 0.869629 3.7663 0.869629H26.3641C27.363 0.869629 28.321 1.26629 29.0273 1.97236C29.7336 2.67842 30.1304 3.63605 30.1304 4.63458V8.39953H32.6915C33.2558 8.40003 33.8128 8.52728 34.3213 8.77187C34.8297 9.01647 35.2767 9.37215 35.6292 9.81264L39.3478 14.4561C39.8829 15.1242 40.1742 15.9546 40.1739 16.8104V22.2043C40.1739 23.2029 39.7771 24.1605 39.0708 24.8666C38.3645 25.5726 37.4065 25.9693 36.4076 25.9693H35.1522C35.1522 27.3007 34.6231 28.5775 33.6813 29.5189C32.7396 30.4603 31.4623 30.9892 30.1304 30.9892C28.7986 30.9892 27.5213 30.4603 26.5795 29.5189C25.6378 28.5775 25.1087 27.3007 25.1087 25.9693H12.5543C12.5558 26.6384 12.4234 27.3011 12.165 27.9183C11.9065 28.5355 11.5273 29.0949 11.0495 29.5635C10.5716 30.0321 10.0049 30.4005 9.38267 30.647C8.76039 30.8935 8.09509 31.0131 7.42588 30.9989C6.75667 30.9847 6.09706 30.8369 5.48582 30.5642C4.87459 30.2914 4.32406 29.8993 3.86661 29.4108C3.40916 28.9224 3.05401 28.3474 2.82205 27.7197C2.59009 27.0921 2.486 26.4244 2.51589 25.7559C1.78033 25.4971 1.14326 25.0165 0.692609 24.3803C0.241962 23.7442 -4.2062e-05 22.9839 5.4835e-09 22.2043V4.63458ZM3.24907 23.3489C3.70303 22.6059 4.34258 21.9938 5.10485 21.5727C5.86711 21.1517 6.72587 20.9361 7.5967 20.9472C8.46754 20.9584 9.3205 21.1958 10.0717 21.6363C10.823 22.0767 11.4466 22.705 11.8814 23.4593H25.7816C26.2233 22.697 26.8569 22.0635 27.6196 21.622V4.63458C27.6196 4.30174 27.4873 3.98253 27.2519 3.74717C27.0164 3.51182 26.6971 3.3796 26.3641 3.3796H3.7663C3.43334 3.3796 3.11402 3.51182 2.87858 3.74717C2.64314 3.98253 2.51087 4.30174 2.51087 4.63458V22.2043C2.51067 22.4459 2.58022 22.6824 2.71116 22.8854C2.84211 23.0884 3.02888 23.2494 3.24907 23.3489ZM30.1304 20.9494C31.0119 20.9494 31.8779 21.1813 32.6412 21.6219C33.4046 22.0625 34.0385 22.6962 34.4793 23.4593H36.4076C36.7406 23.4593 37.0599 23.3271 37.2953 23.0918C37.5308 22.8564 37.663 22.5372 37.663 22.2043V16.8079C37.6625 16.5231 37.5651 16.247 37.3868 16.0248L33.6708 11.3814C33.5533 11.2344 33.4044 11.1157 33.2349 11.034C33.0654 10.9523 32.8797 10.9098 32.6915 10.9095H30.1304V20.9494ZM7.53261 23.4593C6.86668 23.4593 6.22803 23.7238 5.75716 24.1945C5.28628 24.6652 5.02174 25.3036 5.02174 25.9693C5.02174 26.635 5.28628 27.2734 5.75716 27.7441C6.22803 28.2148 6.86668 28.4793 7.53261 28.4793C8.19853 28.4793 8.83718 28.2148 9.30806 27.7441C9.77894 27.2734 10.0435 26.635 10.0435 25.9693C10.0435 25.3036 9.77894 24.6652 9.30806 24.1945C8.83718 23.7238 8.19853 23.4593 7.53261 23.4593ZM30.1304 23.4593C29.4645 23.4593 28.8259 23.7238 28.355 24.1945C27.8841 24.6652 27.6196 25.3036 27.6196 25.9693C27.6196 26.635 27.8841 27.2734 28.355 27.7441C28.8259 28.2148 29.4645 28.4793 30.1304 28.4793C30.7964 28.4793 31.435 28.2148 31.9059 27.7441C32.3768 27.2734 32.6413 26.635 32.6413 25.9693C32.6413 25.3036 32.3768 24.6652 31.9059 24.1945C31.435 23.7238 30.7964 23.4593 30.1304 23.4593Z" fill="#006EB6"/>
<path d="M13.6982 20.9566C13.5597 20.9566 13.4269 20.9055 13.329 20.8145C13.2311 20.7236 13.1761 20.6002 13.1761 20.4716V19.2172L12.5016 19.8449C12.4036 19.9358 12.2707 19.9869 12.1321 19.9868C11.9936 19.9867 11.8607 19.9355 11.7629 19.8444C11.665 19.7533 11.61 19.6298 11.6101 19.5011C11.6102 19.3724 11.6653 19.249 11.7634 19.158L13.1761 17.8455V14.0359L9.626 15.9402L9.1081 17.7349C9.0721 17.8592 8.98444 17.965 8.86441 18.0293C8.74437 18.0935 8.60179 18.1108 8.46804 18.0773C8.33428 18.0439 8.22031 17.9624 8.15118 17.8509C8.08206 17.7394 8.06345 17.6069 8.09945 17.4827L8.34692 16.627L7.17747 17.2537C7.05762 17.317 6.91569 17.3337 6.78264 17.3002C6.6496 17.2666 6.53624 17.1855 6.4673 17.0746C6.39837 16.9637 6.37946 16.8319 6.4147 16.7081C6.44994 16.5842 6.53646 16.4784 6.65539 16.4136L7.82484 15.7869L6.90181 15.557C6.83558 15.5404 6.77352 15.5119 6.71915 15.4731C6.66478 15.4342 6.61919 15.3858 6.58496 15.3306C6.55073 15.2754 6.52855 15.2144 6.51967 15.1512C6.5108 15.088 6.5154 15.0238 6.53323 14.9623C6.55105 14.9008 6.58175 14.8431 6.62356 14.7926C6.66538 14.7421 6.71749 14.6997 6.77692 14.6679C6.83636 14.6361 6.90195 14.6155 6.96996 14.6073C7.03797 14.599 7.10706 14.6033 7.17329 14.6199L9.10288 15.1001L12.654 13.1957L9.10392 11.2914L7.17225 11.7716C7.03936 11.8024 6.89879 11.7834 6.78082 11.7188C6.66285 11.6542 6.57694 11.5491 6.5416 11.4261C6.50626 11.3032 6.52433 11.1723 6.5919 11.0616C6.65948 10.951 6.77116 10.8694 6.90286 10.8345L7.82484 10.6046L6.65539 9.97789C6.59554 9.94628 6.54301 9.90397 6.50082 9.85342C6.45864 9.80286 6.42764 9.74505 6.4096 9.68332C6.39156 9.62158 6.38684 9.55714 6.39571 9.49371C6.40459 9.43027 6.42688 9.36909 6.46131 9.3137C6.49573 9.2583 6.54161 9.20977 6.59631 9.17092C6.651 9.13206 6.71342 9.10364 6.77999 9.08729C6.84655 9.07094 6.91594 9.06698 6.98416 9.07565C7.05237 9.08431 7.11807 9.10543 7.17747 9.13778L8.34692 9.76447L8.09945 8.90786C8.08045 8.84595 8.07491 8.78114 8.08315 8.71722C8.09139 8.65329 8.11324 8.59153 8.14743 8.53553C8.18163 8.47954 8.22748 8.43042 8.28231 8.39106C8.33714 8.35169 8.39986 8.32286 8.46681 8.30625C8.53376 8.28964 8.60359 8.28557 8.67225 8.2943C8.74091 8.30302 8.80701 8.32435 8.8667 8.35705C8.92639 8.38975 8.97848 8.43317 9.01992 8.48476C9.06137 8.53636 9.09134 8.59511 9.1081 8.65758L9.62495 10.4513L13.1761 12.3556V8.54601L11.7634 7.23346C11.7148 7.18842 11.6763 7.13495 11.65 7.07608C11.6237 7.01722 11.6102 6.95412 11.6101 6.89038C11.6101 6.82665 11.6235 6.76353 11.6497 6.70463C11.6759 6.64573 11.7144 6.5922 11.7629 6.54711C11.8113 6.50201 11.8689 6.46622 11.9322 6.44179C11.9956 6.41736 12.0635 6.40476 12.1321 6.40471C12.2007 6.40467 12.2686 6.41718 12.332 6.44153C12.3954 6.46587 12.453 6.50159 12.5016 6.54662L13.1761 7.17428V5.91993C13.1761 5.79129 13.2311 5.66791 13.329 5.57694C13.4269 5.48598 13.5597 5.43488 13.6982 5.43488C13.8366 5.43488 13.9694 5.48598 14.0673 5.57694C14.1653 5.66791 14.2203 5.79129 14.2203 5.91993V7.17428L14.8958 6.54662C14.9939 6.45567 15.1268 6.40462 15.2653 6.40471C15.4038 6.40481 15.5367 6.45602 15.6346 6.54711C15.7324 6.63819 15.7874 6.76167 15.7873 6.89038C15.7872 7.0191 15.7321 7.14251 15.634 7.23346L14.2203 8.54601V12.3556L17.7704 10.4513L18.2883 8.65661C18.3243 8.53234 18.4119 8.42644 18.532 8.36222C18.652 8.298 18.7946 8.28071 18.9283 8.31416C19.0621 8.34761 19.1761 8.42905 19.2452 8.54057C19.3143 8.6521 19.3329 8.78456 19.2969 8.90883L19.0505 9.76447L20.2199 9.13778C20.3398 9.07447 20.4817 9.05778 20.6148 9.09134C20.7478 9.1249 20.8612 9.20599 20.9301 9.31691C20.999 9.42784 21.0179 9.55959 20.9827 9.68343C20.9475 9.80726 20.8609 9.91312 20.742 9.97789L19.5726 10.6046L20.4945 10.8345C20.6283 10.8679 20.7423 10.9494 20.8114 11.0609C20.8805 11.1724 20.8991 11.3049 20.8631 11.4292C20.8271 11.5534 20.7395 11.6593 20.6194 11.7236C20.4994 11.7878 20.3568 11.8051 20.2231 11.7716L18.2935 11.2914L14.7423 13.1957L18.2924 15.1001L20.2231 14.6199C20.3568 14.5865 20.4993 14.604 20.6193 14.6683C20.7392 14.7326 20.8268 14.8385 20.8626 14.9628C20.8985 15.0871 20.8797 15.2195 20.8105 15.3309C20.7413 15.4424 20.6273 15.5237 20.4935 15.557L19.5715 15.7869L20.741 16.4136C20.8599 16.4784 20.9464 16.5842 20.9817 16.7081C21.0169 16.8319 20.998 16.9637 20.9291 17.0746C20.8601 17.1855 20.7468 17.2666 20.6137 17.3002C20.4807 17.3337 20.3387 17.317 20.2189 17.2537L19.0494 16.627L19.2959 17.4836C19.3149 17.5455 19.3204 17.6103 19.3122 17.6743C19.3039 17.7382 19.2821 17.8 19.2479 17.856C19.2137 17.912 19.1678 17.9611 19.113 18.0004C19.0582 18.0398 18.9955 18.0686 18.9285 18.0852C18.8616 18.1019 18.7917 18.1059 18.7231 18.0972C18.6544 18.0885 18.5883 18.0671 18.5286 18.0344C18.4689 18.0017 18.4168 17.9583 18.3754 17.9067C18.334 17.8551 18.304 17.7964 18.2872 17.7339L17.7704 15.9402L14.2203 14.0359V17.8455L15.633 19.158C15.731 19.249 15.7862 19.3724 15.7862 19.5011C15.7863 19.6298 15.7314 19.7533 15.6335 19.8444C15.5356 19.9355 15.4028 19.9867 15.2643 19.9868C15.1257 19.9869 14.9928 19.9358 14.8948 19.8449L14.2192 19.2172V20.4716C14.2192 20.6002 14.1642 20.7236 14.0663 20.8145C13.9684 20.9055 13.8366 20.9566 13.6982 20.9566Z" fill="#006EB6"/>
</svg>
