<svg width="19" height="19" viewBox="0 0 19 19" fill="none" xmlns="http://www.w3.org/2000/svg">
<g clip-path="url(#clip0_6_77)">
<path d="M12.35 9.49988C12.35 10.2558 12.0497 10.9807 11.5153 11.5151C10.9808 12.0496 10.2559 12.3499 9.50001 12.3499C8.74414 12.3499 8.01923 12.0496 7.48475 11.5151C6.95027 10.9807 6.65001 10.2558 6.65001 9.49988C6.65001 9.33743 6.6671 9.17878 6.69656 9.02488H5.70001V12.822C5.70001 13.0861 5.91375 13.2999 6.17786 13.2999H12.8231C12.9497 13.2996 13.071 13.2492 13.1604 13.1596C13.2498 13.07 13.3 12.9486 13.3 12.822V9.02488H12.3035C12.3329 9.17878 12.35 9.33743 12.35 9.49988ZM9.50001 11.3999C9.74958 11.3998 9.9967 11.3506 10.2273 11.255C10.4578 11.1595 10.6673 11.0194 10.8437 10.8429C11.0201 10.6664 11.1601 10.4569 11.2555 10.2262C11.351 9.99565 11.4001 9.74851 11.4 9.49893C11.3999 9.24936 11.3507 9.00224 11.2552 8.77169C11.1596 8.54114 11.0196 8.33167 10.843 8.15523C10.6665 7.9788 10.457 7.83887 10.2264 7.74342C9.99577 7.64797 9.74863 7.59887 9.49905 7.59893C8.99502 7.59906 8.51167 7.79941 8.15536 8.15591C7.79904 8.5124 7.59893 8.99585 7.59906 9.49988C7.59918 10.0039 7.79953 10.4873 8.15603 10.8436C8.51252 11.1999 8.99597 11.4 9.50001 11.3999ZM11.78 7.50488H12.9191C12.9947 7.50488 13.0673 7.47489 13.1209 7.42147C13.1745 7.36805 13.2048 7.29556 13.205 7.21988V6.08083C13.205 6.00499 13.1749 5.93226 13.1213 5.87864C13.0676 5.82501 12.9949 5.79488 12.9191 5.79488H11.78C11.7042 5.79488 11.6314 5.82501 11.5778 5.87864C11.5242 5.93226 11.4941 6.00499 11.4941 6.08083V7.21988C11.495 7.37663 11.6233 7.50488 11.78 7.50488ZM9.50001 0.379883C7.08123 0.379883 4.76152 1.34074 3.05119 3.05107C1.34086 4.7614 0.380005 7.08111 0.380005 9.49988C0.380005 11.9187 1.34086 14.2384 3.05119 15.9487C4.76152 17.659 7.08123 18.6199 9.50001 18.6199C10.6977 18.6199 11.8836 18.384 12.9901 17.9257C14.0966 17.4673 15.1019 16.7956 15.9488 15.9487C16.7957 15.1018 17.4675 14.0964 17.9258 12.99C18.3841 11.8835 18.62 10.6975 18.62 9.49988C18.62 8.30223 18.3841 7.1163 17.9258 6.00981C17.4675 4.90332 16.7957 3.89794 15.9488 3.05107C15.1019 2.2042 14.0966 1.53242 12.9901 1.0741C11.8836 0.615779 10.6977 0.379883 9.50001 0.379883ZM14.25 13.1944C14.25 13.7749 13.775 14.2499 13.1946 14.2499H5.80546C5.22501 14.2499 4.75001 13.7749 4.75001 13.1944V5.80533C4.75001 5.22488 5.22501 4.74988 5.80546 4.74988H13.1946C13.775 4.74988 14.25 5.22488 14.25 5.80533V13.1944Z" fill="white"/>
</g>
<defs>
<clipPath id="clip0_6_77">
<rect width="19" height="19" fill="white"/>
</clipPath>
</defs>
</svg>
