<svg width="37" height="33" viewBox="0 0 37 33" fill="none" xmlns="http://www.w3.org/2000/svg">
<mask id="mask0_884_105" style="mask-type:luminance" maskUnits="userSpaceOnUse" x="12" y="7" width="13" height="14">
<path d="M22.5571 12.7998V15.1999M19.4395 18.1999L20.4787 17.5999L21.5179 16.9999M17.361 18.1999L16.3215 17.5999L15.2823 16.9999M14.2434 12.7998V15.1999M15.2823 10.9998L16.3218 10.3998L17.361 9.7998M19.4395 9.7998L20.4787 10.3998L21.5179 10.9998" stroke="white" stroke-linecap="round" stroke-linejoin="round"/>
<path d="M18.4 20.0001C18.7183 20.0001 19.0235 19.8737 19.2486 19.6486C19.4736 19.4236 19.6001 19.1184 19.6001 18.8001C19.6001 18.4818 19.4736 18.1766 19.2486 17.9516C19.0235 17.7265 18.7183 17.6001 18.4 17.6001C18.0818 17.6001 17.7766 17.7265 17.5515 17.9516C17.3265 18.1766 17.2 18.4818 17.2 18.8001C17.2 19.1184 17.3265 19.4236 17.5515 19.6486C17.7766 19.8737 18.0818 20.0001 18.4 20.0001ZM18.4 10.4C18.7183 10.4 19.0235 10.2736 19.2486 10.0485C19.4736 9.8235 19.6001 9.51827 19.6001 9.20001C19.6001 8.88175 19.4736 8.57652 19.2486 8.35147C19.0235 8.12643 18.7183 8 18.4 8C18.0818 8 17.7766 8.12643 17.5515 8.35147C17.3265 8.57652 17.2 8.88175 17.2 9.20001C17.2 9.51827 17.3265 9.8235 17.5515 10.0485C17.7766 10.2736 18.0818 10.4 18.4 10.4ZM18.4 15.2001C18.7183 15.2001 19.0235 15.0736 19.2486 14.8486C19.4736 14.6235 19.6001 14.3183 19.6001 14.0001C19.6001 13.6818 19.4736 13.3766 19.2486 13.1515C19.0235 12.9265 18.7183 12.8 18.4 12.8C18.0818 12.8 17.7766 12.9265 17.5515 13.1515C17.3265 13.3766 17.2 13.6818 17.2 14.0001C17.2 14.3183 17.3265 14.6235 17.5515 14.8486C17.7766 15.0736 18.0818 15.2001 18.4 15.2001ZM22.6001 12.8C22.9183 12.8 23.2236 12.6736 23.4486 12.4486C23.6737 12.2235 23.8001 11.9183 23.8001 11.6C23.8001 11.2818 23.6737 10.9765 23.4486 10.7515C23.2236 10.5265 22.9183 10.4 22.6001 10.4C22.2818 10.4 21.9766 10.5265 21.7516 10.7515C21.5265 10.9765 21.4001 11.2818 21.4001 11.6C21.4001 11.9183 21.5265 12.2235 21.7516 12.4486C21.9766 12.6736 22.2818 12.8 22.6001 12.8ZM22.6001 17.6001C22.9183 17.6001 23.2236 17.4737 23.4486 17.2486C23.6737 17.0236 23.8001 16.7183 23.8001 16.4001C23.8001 16.0818 23.6737 15.7766 23.4486 15.5515C23.2236 15.3265 22.9183 15.2001 22.6001 15.2001C22.2818 15.2001 21.9766 15.3265 21.7516 15.5515C21.5265 15.7766 21.4001 16.0818 21.4001 16.4001C21.4001 16.7183 21.5265 17.0236 21.7516 17.2486C21.9766 17.4737 22.2818 17.6001 22.6001 17.6001ZM14.2 12.8C14.5183 12.8 14.8235 12.6736 15.0485 12.4486C15.2736 12.2235 15.4 11.9183 15.4 11.6C15.4 11.2818 15.2736 10.9765 15.0485 10.7515C14.8235 10.5265 14.5183 10.4 14.2 10.4C13.8817 10.4 13.5765 10.5265 13.3515 10.7515C13.1264 10.9765 13 11.2818 13 11.6C13 11.9183 13.1264 12.2235 13.3515 12.4486C13.5765 12.6736 13.8817 12.8 14.2 12.8ZM14.2 17.6001C14.5183 17.6001 14.8235 17.4737 15.0485 17.2486C15.2736 17.0236 15.4 16.7183 15.4 16.4001C15.4 16.0818 15.2736 15.7766 15.0485 15.5515C14.8235 15.3265 14.5183 15.2001 14.2 15.2001C13.8817 15.2001 13.5765 15.3265 13.3515 15.5515C13.1264 15.7766 13 16.0818 13 16.4001C13 16.7183 13.1264 17.0236 13.3515 17.2486C13.5765 17.4737 13.8817 17.6001 14.2 17.6001Z" fill="white" stroke="white" stroke-linecap="round" stroke-linejoin="round"/>
</mask>
<g mask="url(#mask0_884_105)">
<path d="M11.2 6.80029H25.6001V21.2004H11.2V6.80029Z" fill="#006EB6"/>
</g>
</svg>
