<svg width="17" height="18" viewBox="0 0 17 18" fill="none" xmlns="http://www.w3.org/2000/svg">
<path d="M12.4764 11.0563C13.5051 9.65229 13.9659 7.91153 13.7665 6.1823C13.5671 4.45307 12.7222 2.86291 11.4009 1.72994C10.0796 0.596981 8.37925 0.00476963 6.64009 0.0717918C4.90094 0.138814 3.25122 0.860126 2.02098 2.09142C0.790735 3.32271 0.070705 4.97319 0.00493676 6.71263C-0.0608315 8.45208 0.532513 10.1522 1.66626 11.4729C2.80001 12.7936 4.39055 13.6375 6.11968 13.8357C7.84881 14.0339 9.589 13.5718 10.9921 12.5419H10.991C11.0229 12.5844 11.0569 12.6247 11.0952 12.6641L15.1856 16.7551C15.3849 16.9545 15.6551 17.0666 15.9369 17.0667C16.2188 17.0668 16.4891 16.9549 16.6885 16.7556C16.8878 16.5564 16.9999 16.2861 17 16.0042C17.0001 15.7223 16.8882 15.452 16.689 15.2526L12.5985 11.1615C12.5606 11.1231 12.5197 11.0876 12.4764 11.0553V11.0563ZM12.7505 6.97166C12.7505 7.73915 12.5993 8.49913 12.3057 9.2082C12.012 9.91727 11.5816 10.5615 11.0389 11.1042C10.4963 11.6469 9.85214 12.0774 9.14317 12.3711C8.4342 12.6648 7.67433 12.816 6.90694 12.816C6.13956 12.816 5.37969 12.6648 4.67072 12.3711C3.96175 12.0774 3.31757 11.6469 2.77494 11.1042C2.23232 10.5615 1.80189 9.91727 1.50823 9.2082C1.21456 8.49913 1.06341 7.73915 1.06341 6.97166C1.06341 5.42164 1.67907 3.93511 2.77494 2.83908C3.87082 1.74305 5.35714 1.12731 6.90694 1.12731C8.45675 1.12731 9.94307 1.74305 11.0389 2.83908C12.1348 3.93511 12.7505 5.42164 12.7505 6.97166Z" fill="white"/>
</svg>
