<svg width="38" height="38" viewBox="0 0 38 38" fill="none" xmlns="http://www.w3.org/2000/svg">
<path d="M18.411 0.15637C18.5904 0.0538982 18.7934 0 19 0C19.2066 0 19.4096 0.0538982 19.589 0.15637L28.4953 5.2461C28.677 5.34992 28.8281 5.49994 28.9332 5.68095C29.0383 5.86197 29.0937 6.06755 29.0938 6.27687V15.7652L37.4015 20.5153C37.5826 20.6187 37.7332 20.768 37.8382 20.9481C37.9433 21.1282 37.9991 21.3328 38 21.5413V31.7208C37.9999 31.9301 37.9445 32.1357 37.8394 32.3167C37.7343 32.4977 37.5833 32.6477 37.4015 32.7515L28.4953 37.8413C28.3159 37.9437 28.1128 37.9976 27.9062 37.9976C27.6997 37.9976 27.4966 37.9437 27.3172 37.8413L19 33.0912L10.6828 37.8436C10.5034 37.9461 10.3003 38 10.0938 38C9.88716 38 9.68414 37.9461 9.50475 37.8436L0.5985 32.7539C0.416748 32.6501 0.265667 32.5001 0.160563 32.319C0.0554592 32.138 6.75142e-05 31.9325 0 31.7231L0 21.5437C6.75142e-05 21.3344 0.0554592 21.1288 0.160563 20.9478C0.265667 20.7667 0.416748 20.6167 0.5985 20.5129L8.90625 15.7652V6.27687C8.90632 6.06755 8.96171 5.86197 9.06681 5.68095C9.17192 5.49994 9.323 5.34992 9.50475 5.2461L18.411 0.15637ZM10.0938 17.822L3.5815 21.5437L10.0938 25.2654L16.606 21.5437L10.0938 17.822ZM17.8125 23.591L11.2812 27.3222V34.7656L17.8125 31.0344V23.591ZM20.1875 31.0344L26.7188 34.7656V27.3222L20.1875 23.591V31.0344ZM21.394 21.5437L27.9062 25.2654L34.4185 21.5437L27.9062 17.822L21.394 21.5437ZM26.7188 15.7652V8.32178L20.1875 12.0554V19.4988L26.7188 15.7652ZM17.8125 19.4988V12.0554L11.2812 8.32178V15.7652L17.8125 19.4988ZM12.4878 6.27687L19 9.99857L25.5122 6.27687L19 2.55517L12.4878 6.27687ZM35.625 23.591L29.0938 27.3222V34.7656L35.625 31.0344V23.591ZM8.90625 34.7656V27.3222L2.375 23.591V31.0344L8.90625 34.7656Z" fill="#006EB6"/>
</svg>
